{
.appVersion = "3151";
.formatVersion = 3;
axes = (
{
hidden = 1;
name = Shrink;
tag = ASHR;
},
{
hidden = 1;
name = Stretch;
tag = ASTR;
}
);
classes = (
{
code = "dotabove-ar
dotabove-ar.reh
dotbelow-ar
twodotsverticalabove-ar
twodotsverticalbelow-ar
threedotsupabove-ar
threedotshorizontalabove-ar
threedotshorizontalabove-ar.alt
";
name = tashkil;
},
{
code = "waw-ar # waw-ar.1
";
name = waw;
},
{
code = "waw-ar.fina # waw-ar.fina.1
";
name = waw.fina;
},
{
code = "ain-ar";
name = ain;
},
{
code = "ain-ar.init
ain-ar.init
";
name = ain.init;
},
{
code = "alef-ar
behDotless-ar
hah-ar
dal-ar
reh-ar
seen-ar
sad-ar
tah-ar
ain-ar
fehDotless-ar
qafDotless-ar
kaf-ar
lam-ar
meem-ar
noonghunna-ar
heh-ar
@waw
alefMaksura-ar

threedots-ar

behDotless_reh-ar
behDotless_waw-ar
ain_waw-ar
fehDotless_alefMaksura-ar
fehDotless_alef-ar
lam_alef-ar
meem_noonghunna-ar
meem_noonghunna-ar.1
lam_lam_heh-ar
";
name = isol;
},
{
code = "behDotless-ar.init
behDotless-ar.init.ain
behDotless-ar.init.beh
hah-ar.init
seen-ar.init
sad-ar.init
tah-ar.init
ain-ar.init
# ain-ar.init.1
fehDotless-ar.init
kaf-ar.init
lam-ar.init
meem-ar.init
meem-ar.init.alt
heh-ar.init
behDotless_seen-ar.init
";
name = init;
},
{
code = "alef-ar.fina
alef-ar.fina.meem
behDotless-ar.fina
hah-ar.fina
dal-ar.fina
reh-ar.fina
seen-ar.fina
sad-ar.fina
tah-ar.fina
ain-ar.fina
fehDotless-ar.fina
qafDotless-ar.fina
kaf-ar.fina
lam-ar.fina
meem-ar.fina
noonghunna-ar.fina
heh-ar.fina
@waw.fina
waw-ar.fina.alt
alefMaksura-ar.fina
lam_alef-ar.fina
lam_alefMaksura-ar.fina
";
name = fina;
}
);
customParameters = (
{
name = "Write lastChange";
value = 0;
},
{
name = "Don't use Production Names";
value = 1;
},
{
name = "Disable Subroutines";
value = 1;
},
{
name = "Propagate Anchors";
value = 0;
},
{
name = "Write DisplayStrings";
value = 0;
},
{
name = "Use Line Breaks";
value = 1;
},
{
name = "Color Palettes";
value = (
(
(144,41,0,255),
(154,115,18,255),
(71,28,1,255)
)
);
},
{
name = "Virtual Master";
value = (
{

glyphs = (
{
glyphname = "alef-ar";
layers = (
{
anchors = (
{
name = bottom.hamza;
pos = (477,-130);
},
{
name = damma;
pos = (-43,152);
},
{
name = fatha;
pos = (247,1076);
},
{
name = top.hamza;
pos = (247,1076);
},
{
name = top.madda;
pos = (-96,1076);
}
);
backgroundImage = {
alpha = 80;
imagePath = "images/alef-ar.jpg";
locked = 1;
pos = (-222,-294);
scale = (20,20);
};
layerId = m01;
shapes = (
{
closed = 1;
nodes = (
(130,1256,o),
(126,1255,o),
(119,1243,cs),
(93,1198,o),
(46,1130,o),
(3,1084,cs),
(-1,1080,o),
(0,1076,o),
(1,1071,cs),
(10,1029,o),
(18,980,o),
(19,908,cs),
(22,724,o),
(22,516,o),
(14,332,cs),
(2,62,o),
(206,-56,o),
(426,-56,cs),
(667,-56,o),
(897,62,o),
(1023,282,cs),
(1027,289,o),
(1020,293,o),
(1016,288,cs),
(888,174,o),
(717,121,o),
(560,121,cs),
(350,121,o),
(132,233,o),
(132,437,cs),
(132,525,o),
(133,661,o),
(138,838,cs),
(141,955,o),
(142,1101,o),
(131,1242,cs)
);
}
);
width = 1024;
},
{
anchors = (
{
name = bottom.hamza;
pos = (477,-130);
},
{
name = top.hamza;
pos = (247,1076);
},
{
name = top.madda;
pos = (-96,1076);
}
);
associatedMasterId = m01;
layerId = "9B00899D-88D5-45BD-9E3A-3FF7DCDD9D9E";
name = "19 Jun 22, 19:05";
shapes = (
{
closed = 1;
nodes = (
(130,1248,o),
(127,1247,o),
(124,1242,cs),
(93,1188,o),
(46,1130,o),
(3,1084,cs),
(0,1081,o),
(0,1075,o),
(1,1071,cs),
(10,1029,o),
(19,980,o),
(19,908,cs),
(19,724,o),
(17,516,o),
(17,288,cs),
(17,-168,o),
(803,-170,o),
(1029,294,c),
(733,12,o),
(126,90,o),
(132,442,cs),
(135,591,o),
(145,869,o),
(130,1242,cs)
);
}
);
width = 1029;
}
);
metricLeft = "=0";
metricRight = "=0";
unicode = 1575;
},
{
glyphname = "alef-ar.fina";
layers = (
{
anchors = (
{
name = damma;
pos = (-83,152);
},
{
name = fatha;
pos = (247,1036);
}
);
backgroundImage = {
alpha = 80;
imagePath = "images/alef-ar.fina.jpg";
locked = 1;
pos = (-242,-293);
scale = (20,20);
};
layerId = m01;
shapes = (
{
closed = 1;
nodes = (
(165,150,l),
(155,151,o),
(128,162,o),
(125,250,cs),
(117,494,o),
(135,1088,o),
(130,1217,cs),
(130,1231,o),
(120,1241,o),
(112,1218,cs),
(94,1167,o),
(36,1087,o),
(10,1070,cs),
(-7,1059,o),
(-12,1056,o),
(2,1030,cs),
(12,1012,o),
(11,988,o),
(12,952,cs),
(20,720,o),
(5,346,o),
(0,44,cs),
(0,20,o),
(8,7,o),
(60,4,cs),
(95,2,o),
(130,1,o),
(165,1,c)
);
}
);
width = 136;
},
{
associatedMasterId = m01;
layerId = "793E0934-4E2B-4F99-A6EE-DB1014983831";
name = "19 Jun 22, 21:51";
shapes = (
{
closed = 1;
nodes = (
(246,164,l),
(272,132,l),
(168,130,o),
(140,162,o),
(136,210,cs),
(120,416,o),
(142,1086,o),
(134,1240,c),
(110,1168,o),
(52,1100,o),
(0,1058,c),
(26,800,o),
(12,376,o),
(0,44,cs),
(0,20,o),
(26,0,o),
(60,0,cs),
(260,0,l),
(244,-40,l)
);
}
);
width = 136;
}
);
metricLeft = "=0@44";
},
{
glyphname = "alef-ar.fina.meem";
layers = (
{
anchors = (
{
name = damma;
pos = (-33,182);
},
{
name = fatha;
pos = (257,1106);
}
);
backgroundImage = {
alpha = 80;
imagePath = "images/alef-ar.fina.meem.jpg";
locked = 1;
pos = (-177,-282);
scale = (20,20);
};
layerId = m01;
shapes = (
{
closed = 1;
nodes = (
(140,1293,o),
(130,1294,o),
(122,1273,cs),
(105,1226,o),
(74,1185,o),
(32,1149,cs),
(20,1139,o),
(12,1125,o),
(18,1110,cs),
(23,1098,o),
(27,1094,o),
(31,1036,cs),
(45,809,o),
(12,372,o),
(0,46,cs),
(-2,-3,o),
(59,0,o),
(167,0,c),
(169,164,l),
(139,186,o),
(114,220,o),
(116,275,cs),
(121,438,o),
(181,1139,o),
(146,1270,cs)
);
}
);
width = 139;
},
{
associatedMasterId = m01;
layerId = "3C41DB2B-4921-4403-800E-F534499CB431";
name = "19 Jun 22, 21:54";
shapes = (
{
closed = 1;
nodes = (
(120,1228,o),
(72,1168,o),
(20,1126,c),
(46,868,o),
(12,376,o),
(0,44,cs),
(0,20,o),
(26,0,o),
(60,0,cs),
(220,0,l),
(164,-40,l),
(166,202,l),
(228,134,l),
(184,148,o),
(110,182,o),
(112,236,cs),
(118,442,o),
(152,1146,o),
(144,1300,c)
);
}
);
width = 136;
}
);
metricLeft = "=0@46";
},
{
glyphname = "behDotless-ar";
layers = (
{
anchors = (
{
name = bottom;
pos = (2185,47);
},
{
name = damma;
pos = (-107,68);
},
{
name = fatha;
pos = (1969,481);
},
{
name = kasra;
pos = (1917,-82);
},
{
name = top;
pos = (1895,313);
}
);
backgroundImage = {
alpha = 80;
imagePath = "images/behDotless-ar.jpg";
locked = 1;
pos = (-165,-400);
scale = (20,20);
};
layerId = m01;
shapes = (
{
closed = 1;
nodes = (
(1944,322,o),
(1881,251,o),
(1838,222,cs),
(1830,217,o),
(1835,208,o),
(1843,207,cs),
(1920,197,o),
(1978,158,o),
(1984,131,c),
(1984,126,o),
(1974,122,o),
(1944,121,cs),
(1677,111,o),
(1397,112,o),
(1117,112,cs),
(821,112,o),
(504,115,o),
(222,126,cs),
(205,127,o),
(177,135,o),
(167,157,cs),
(165,161,o),
(163,163,o),
(159,157,cs),
(116,96,o),
(46,29,o),
(6,19,cs),
(-2,17,o),
(-2,10,o),
(8,10,cs),
(556,10,o),
(1274,0,o),
(1866,0,cs),
(1965,0,o),
(2056,0,o),
(2138,0,cs),
(2167,0,o),
(2226,7,o),
(2224,39,cs),
(2216,174,o),
(2107,362,o),
(1982,381,c)
);
}
);
width = 2224;
}
);
metricLeft = "=0";
metricRight = "=0";
unicode = 1646;
},
{
glyphname = "behDotless-ar.fina";
layers = (
{
anchors = (
{
name = bottom;
pos = (2159,-60);
},
{
name = damma;
pos = (-57,68);
},
{
name = fatha;
pos = (2243,611);
},
{
name = kasra;
pos = (1901,-92);
},
{
name = top;
pos = (2199,440);
}
);
layerId = m01;
shapes = (
{
closed = 1;
nodes = (
(2361,233,o),
(2321,411,o),
(2274,515,cs),
(2271,521,o),
(2269,519,o),
(2267,515,cs),
(2228,456,o),
(2180,400,o),
(2118,365,cs),
(2109,360,o),
(2107,355,o),
(2112,349,cs),
(2168,278,o),
(2209,188,o),
(2205,84,c),
(2267,150,l),
(2097,122,o),
(1925,122,o),
(1561,118,cs),
(1293,114,o),
(831,118,o),
(369,126,cs),
(309,128,o),
(241,130,o),
(185,150,cs),
(180,152,o),
(177,149,o),
(175,147,cs),
(120,89,o),
(64,41,o),
(5,12,cs),
(0,10,o),
(-3,6,o),
(5,6,cs),
(379,2,o),
(760,4,o),
(1145,4,cs),
(1549,4,o),
(1951,-2,o),
(2349,0,c)
);
}
);
width = 2347;
},
{
anchors = (
{
name = bottom;
pos = (2168,-60);
},
{
name = kasra;
pos = (1910,-92);
},
{
name = top;
pos = (2208,440);
}
);
associatedMasterId = m01;
layerId = "2F9413E5-5F3F-478B-98CE-A634B4738AFB";
name = "19 Jun 22, 22:01";
shapes = (
{
closed = 1;
nodes = (
(2376,210,o),
(2332,412,o),
(2280,522,c),
(2238,456,o),
(2184,396,o),
(2114,358,c),
(2178,278,o),
(2218,192,o),
(2214,84,c),
(2276,150,l),
(2106,122,o),
(1934,122,o),
(1570,118,cs),
(1302,114,o),
(840,118,o),
(378,126,cs),
(316,128,o),
(250,130,o),
(188,152,c),
(128,86,o),
(66,34,o),
(0,6,c),
(388,2,o),
(764,4,o),
(1154,4,cs),
(1572,4,o),
(1988,-2,o),
(2400,0,c),
(2354,-56,l)
);
}
);
visible = 1;
width = 2356;
}
);
metricLeft = "=0";
},
{
glyphname = "behDotless-ar.medi";
layers = (
{
anchors = (
{
name = bottom;
pos = (121,38);
},
{
name = damma;
pos = (3,260);
},
{
name = entry;
pos = (159,0);
},
{
name = exit;
},
{
name = fatha;
pos = (122,830);
},
{
name = kasra;
pos = (72,-100);
},
{
name = top;
pos = (72,609);
}
);
layerId = m01;
metricLeft = "=20@151";
shapes = (
{
closed = 1;
nodes = (
(50,0,o),
(89,0,o),
(159,0,c),
(159,150,l),
(153,150,l),
(146,278,o),
(143,454,o),
(135,663,cs),
(135,672,o),
(128,672,o),
(123,664,cs),
(89,609,o),
(44,545,o),
(11,515,cs),
(4,508,o),
(3,502,o),
(4,492,cs),
(18,389,o),
(20,257,o),
(20,150,c),
(-4,150,o),
(4,150,o),
(-20,150,c),
(-20,0,l)
);
}
);
width = 159;
},
{
anchors = (
{
name = bottom;
pos = (1740,-110);
},
{
name = damma;
pos = (1629,260);
},
{
name = entry;
pos = (1815,0);
},
{
name = exit;
},
{
name = fatha;
pos = (1743,830);
},
{
name = kasra;
pos = (1741,-100);
},
{
name = top;
pos = (1672,553);
}
);
associatedMasterId = m01;
attr = {
coordinates = (
0,
100
);
};
backgroundImage = {
alpha = 80;
imagePath = "images/behDotless-ar.medi.jpg";
locked = 1;
pos = (-341,-119);
scale = (20,20);
};
layerId = "86E49FB5-E58F-46D6-9294-1FA5FA1F9D58";
metricLeft = "=-20";
name = "{0, 100}";
shapes = (
{
closed = 1;
nodes = (
(592,-23,o),
(1203,-28,o),
(1815,-1,c),
(1815,150,l),
(1809,150,l),
(1785,359,o),
(1774,540,o),
(1764,662,cs),
(1763,677,o),
(1750,679,o),
(1747,664,cs),
(1732,595,o),
(1681,500,o),
(1634,455,cs),
(1628,449,o),
(1628,439,o),
(1631,430,cs),
(1652,365,o),
(1662,235,o),
(1661,153,c),
(1098,123,o),
(474,137,o),
(-20,159,c),
(-20,-1,l)
);
}
);
visible = 1;
width = 1815;
}
);
metricLeft = "=20@492";
metricRight = "=0";
},
{
glyphname = "behDotless-ar.medi.ain";
layers = (
{
anchors = (
{
name = bottom;
pos = (100,-110);
},
{
name = damma;
pos = (20,219);
},
{
name = entry;
pos = (190,0);
},
{
name = exit;
},
{
name = fatha;
pos = (95,607);
},
{
name = kasra;
pos = (95,-103);
},
{
name = top;
pos = (68,478);
}
);
backgroundImage = {
alpha = 80;
angle = 0.4;
imagePath = "images/behDotless-ar.medi.ain.jpg";
locked = 1;
pos = (-1627,-464);
scale = (20,20);
};
layerId = m01;
shapes = (
{
closed = 1;
nodes = (
(210,0,l),
(260,150,l),
(225,154,o),
(199,169,o),
(181,219,cs),
(161,277,o),
(126,413,o),
(116,505,cs),
(114,525,o),
(104,525,o),
(101,508,cs),
(90,446,o),
(54,393,o),
(11,342,cs),
(1,331,o),
(3,319,o),
(8,306,cs),
(20,277,o),
(31,154,o),
(68,109,c),
(91,150,l),
(-20,150,l),
(-20,0,l)
);
}
);
width = 190;
}
);
metricLeft = "=-20";
},
{
glyphname = "behDotless-ar.medi.kaf";
layers = (
{
anchors = (
{
name = bottom;
pos = (100,-42);
},
{
name = damma;
pos = (-8,232);
},
{
name = entry;
pos = (180,0);
},
{
name = exit;
},
{
name = fatha;
pos = (127,646);
},
{
name = kasra;
pos = (95,-88);
},
{
name = top;
pos = (65,493);
}
);
backgroundImage = {
alpha = 80;
angle = -0.3;
imagePath = "images/behDotless-ar.medi.kaf.jpg";
locked = 1;
pos = (-2038,-377);
scale = (20,20);
};
layerId = m01;
shapes = (
{
closed = 1;
nodes = (
(218,0,l),
(273,132,l),
(207,133,o),
(188,144,o),
(168,198,cs),
(142,270,o),
(128,424,o),
(124,542,cs),
(124,558,o),
(110,562,o),
(105,542,cs),
(90,484,o),
(27,414,o),
(8,390,cs),
(5,386,o),
(-1,378,o),
(1,367,cs),
(17,272,o),
(27,172,o),
(34,109,c),
(81,150,l),
(-20,150,l),
(-20,0,l)
);
}
);
width = 180;
}
);
metricLeft = "=-20";
},
{
glyphname = "behDotless-ar.medi.lam";
layers = (
{
anchors = (
{
name = bottom;
pos = (68,-42);
},
{
name = damma;
pos = (5,261);
},
{
name = entry;
pos = (164,0);
},
{
name = exit;
},
{
name = fatha;
pos = (105,578);
},
{
name = kasra;
pos = (82,-99);
},
{
name = top;
pos = (86,430);
}
);
backgroundImage = {
alpha = 80;
imagePath = "images/lam-ar.init.jpg";
locked = 1;
pos = (-326,-203);
scale = (20,20);
};
layerId = m01;
shapes = (
{
closed = 1;
nodes = (
(-20,150,l),
(-20,0,l),
(188,0,l),
(188,174,l),
(171,178,o),
(164,183,o),
(164,204,cs),
(164,266,o),
(158,356,o),
(143,460,cs),
(141,473,o),
(134,479,o),
(123,463,cs),
(90,415,o),
(68,365,o),
(20,316,cs),
(-7,289,o),
(16,279,o),
(20,235,cs),
(22,216,o),
(22,183,o),
(22,150,c)
);
}
);
width = 164;
}
);
metricLeft = "=-20";
metricRight = "=0@204";
},
{
glyphname = "behDotless-ar.medi.meem";
layers = (
{
anchors = (
{
name = bottom;
pos = (94,0);
},
{
name = damma;
pos = (-24,323);
},
{
name = entry;
pos = (174,0);
},
{
name = exit;
},
{
name = fatha;
pos = (80,722);
},
{
name = kasra;
pos = (104,-89);
},
{
name = top;
pos = (38,553);
}
);
backgroundImage = {
alpha = 80;
angle = -0.3;
imagePath = "images/behDotless-ar.medi.kaf.jpg";
locked = 1;
pos = (-1006,-377);
scale = (20,20);
};
layerId = m01;
shapes = (
{
closed = 1;
nodes = (
(212,0,l),
(267,132,l),
(212,132,o),
(183,139,o),
(158,198,cs),
(128,270,o),
(108,482,o),
(104,601,cs),
(104,611,o),
(98,610,o),
(93,601,cs),
(60,545,o),
(19,482,o),
(-11,451,cs),
(-17,444,o),
(-20,438,o),
(-19,429,cs),
(-12,305,o),
(-7,202,o),
(7,88,cs),
(11,56,o),
(30,0,o),
(94,0,c)
);
}
);
width = 174;
}
);
},
{
glyphname = "behDotless-ar.init";
layers = (
{
anchors = (
{
name = bottom;
pos = (152,38);
},
{
name = damma;
pos = (22,282);
},
{
name = exit;
},
{
name = fatha;
pos = (153,730);
},
{
name = kasra;
pos = (140,-113);
},
{
name = top;
pos = (103,509);
}
);
backgroundImage = {
alpha = 80;
imagePath = "images/behDotless-ar.init.jpg";
locked = 1;
pos = (-550,-745);
scale = (20,20);
};
layerId = m01;
shapes = (
{
closed = 1;
nodes = (
(120,0,ls),
(158,0,o),
(192,15,o),
(190,48,cs),
(178,249,o),
(176,304,o),
(166,563,cs),
(166,572,o),
(159,572,o),
(154,564,cs),
(120,509,o),
(75,445,o),
(42,415,cs),
(35,408,o),
(34,402,o),
(35,392,cs),
(52,271,o),
(51,248,o),
(51,84,c),
(87,150,l),
(-20,150,l),
(-20,0,l)
);
}
);
width = 190;
}
);
metricLeft = "=-20";
metricRight = "=0";
},
{
glyphname = "behDotless-ar.init.ain";
layers = (
{
anchors = (
{
name = bottom;
pos = (120,38);
},
{
name = exit;
},
{
name = fatha;
pos = (140,800);
},
{
name = top;
pos = (60,602);
}
);
layerId = m01;
shapes = (
{
closed = 1;
nodes = (
(120,0,l),
(142,0,o),
(158,14,o),
(158,36,cs),
(158,337,o),
(161,424,o),
(126,673,cs),
(125,682,o),
(119,682,o),
(114,674,cs),
(80,619,o),
(41,566,o),
(4,525,cs),
(-3,518,o),
(-6,512,o),
(-3,502,cs),
(28,381,o),
(19,255,o),
(14,84,c),
(74,150,l),
(-20,150,l),
(-20,0,l)
);
}
);
width = 178;
}
);
metricLeft = "=-20";
},
{
glyphname = "behDotless-ar.init.beh";
layers = (
{
anchors = (
{
name = bottom;
pos = (125,38);
},
{
name = damma;
pos = (-5,319);
},
{
name = exit;
},
{
name = fatha;
pos = (46,841);
},
{
name = kasra;
pos = (92,-112);
},
{
name = top;
pos = (8,611);
}
);
backgroundImage = {
alpha = 80;
imagePath = "images/behDotless-ar.init.beh.jpg";
locked = 1;
pos = (-2594,-469);
scale = (20,20);
};
layerId = m01;
shapes = (
{
closed = 1;
nodes = (
(119,0,l),
(141,0,o),
(158,14,o),
(157,36,cs),
(149,298,o),
(155,452,o),
(98,693,cs),
(95,704,o),
(90,703,o),
(86,695,cs),
(56,630,o),
(11,564,o),
(-20,544,cs),
(-31,537,o),
(-30,522,o),
(-24,505,cs),
(5,428,o),
(23,308,o),
(23,247,cs),
(23,224,o),
(2,224,o),
(-5,224,c),
(-20,224,l),
(-20,0,l)
);
}
);
width = 183;
},
{
anchors = (
{
name = bottom;
pos = (2950,38);
},
{
name = exit;
},
{
name = fatha;
pos = (2922,700);
},
{
name = top;
pos = (2884,470);
}
);
associatedMasterId = m01;
layerId = "ABAB2150-620C-418B-B3ED-83100A3DA3F3";
name = "17 May 21, 05:03";
shapes = (
{
closed = 1;
nodes = (
(-58,0,l),
(2950,0,l),
(2972,0,o),
(2988,14,o),
(2988,36,cs),
(2988,358,o),
(2992,434,o),
(2926,670,c),
(2982,612,l),
(2926,514,o),
(2868,430,o),
(2798,362,c),
(2794,444,l),
(2864,304,o),
(2848,282,o),
(2848,84,c),
(2904,132,l),
(-54,132,l),
(-20,242,l),
(-20,-30,l)
);
}
);
width = 3008;
}
);
metricLeft = "=-20@10";
},
{
glyphname = "hah-ar";
layers = (
{
anchors = (
{
name = center;
pos = (1227,-112);
},
{
name = damma;
pos = (-118,91);
},
{
name = fatha;
pos = (601,552);
},
{
name = kasra;
pos = (1517,-144);
},
{
name = top;
pos = (479,394);
}
);
backgroundImage = {
alpha = 80;
imagePath = "images/hah-ar.jpg";
locked = 1;
pos = (-204,-379);
scale = (20,20);
};
layerId = m01;
shapes = (
{
closed = 1;
nodes = (
(1814,107,o),
(1814,101,o),
(1810,99,cs),
(1751,69,o),
(1690,40,o),
(1631,11,cs),
(1627,9,o),
(1619,5,o),
(1610,5,cs),
(1269,5,o),
(1049,0,o),
(887,-5,cs),
(810,-7,o),
(668,-2,o),
(556,3,cs),
(379,11,o),
(232,32,o),
(203,157,cs),
(199,174,o),
(169,167,o),
(172,149,cs),
(193,24,o),
(311,-7,o),
(436,-21,cs),
(633,-44,o),
(923,-41,o),
(1233,-33,cs),
(1238,-33,o),
(1238,-39,o),
(1234,-41,cs),
(1192,-63,o),
(1141,-88,o),
(1108,-115,cs),
(1091,-130,o),
(1073,-135,o),
(1054,-136,cs),
(853,-149,o),
(652,-165,o),
(451,-168,cs),
(203,-171,o),
(63,-140,o),
(15,-35,cs),
(-40,86,o),
(64,280,o),
(199,337,cs),
(271,367,o),
(318,351,o),
(375,297,cs),
(455,220,o),
(548,146,o),
(643,166,c),
(675,130,l),
(594,174,o),
(498,227,o),
(429,291,cs),
(425,295,o),
(424,303,o),
(430,308,cs),
(475,350,o),
(524,400,o),
(562,456,cs),
(566,462,o),
(572,462,o),
(576,458,cs),
(712,344,o),
(944,155,o),
(1359,114,cs),
(1527,97,o),
(1624,103,o),
(1808,107,c)
);
}
);
width = 1813;
}
);
metricLeft = "=0";
metricRight = "=0";
unicode = 1581;
},
{
glyphname = "hah-ar.init";
layers = (
{
anchors = (
{
name = bottom;
pos = (591,-73);
},
{
name = exit;
},
{
name = fatha;
pos = (234,488);
},
{
name = top;
pos = (53,304);
}
);
backgroundImage = {
alpha = 80;
angle = 0.5;
imagePath = "images/hah-ar.init.jpg";
locked = 1;
pos = (-450,-284);
scale = (20,20);
};
layerId = m01;
shapes = (
{
closed = 1;
nodes = (
(158,360,o),
(152,362,o),
(145,354,cs),
(98,297,o),
(58,254,o),
(23,231,cs),
(14,225,o),
(9,220,o),
(23,211,cs),
(98,163,o),
(222,113,o),
(300,87,c),
(286,150,l),
(-20,150,l),
(-20,0,l),
(239,3,o),
(541,5,o),
(763,6,cs),
(957,6,o),
(1105,2,o),
(1155,1,cs),
(1167,1,o),
(1212,0,o),
(1228,15,cs),
(1257,41,o),
(1327,63,o),
(1393,93,cs),
(1402,97,o),
(1401,106,o),
(1395,106,cs),
(1213,106,o),
(988,119,o),
(804,133,cs),
(643,145,o),
(380,220,o),
(164,357,c)
);
}
);
width = 1400;
}
);
metricLeft = "=-20";
metricRight = "=0";
},
{
glyphname = "dal-ar";
layers = (
{
anchors = (
{
name = damma;
pos = (-8,226);
},
{
name = fatha;
pos = (716,446);
},
{
name = kasra;
pos = (848,-82);
},
{
name = top;
pos = (1024,403);
}
);
backgroundImage = {
alpha = 100;
imagePath = "1/image-0056.jpg";
pos = (-12957,-3244);
scale = (20,20);
};
layerId = m01;
shapes = (
{
closed = 1;
nodes = (
(1541,-1,o),
(1557,21,o),
(1552,51,cs),
(1537,138,o),
(1523,179,o),
(1478,270,c),
(1472,280,o),
(1460,282,o),
(1450,282,cs),
(1112,272,o),
(700,276,o),
(362,288,cs),
(350,288,o),
(348,292,o),
(356,300,cs),
(426,378,o),
(480,446,o),
(532,510,c),
(520,520,l),
(412,408,o),
(297,274,o),
(196,160,c),
(554,145,o),
(977,146,o),
(1328,152,c),
(1332,150,o),
(1334,146,o),
(1336,140,c),
(970,129,o),
(566,113,o),
(178,133,c),
(133,87,o),
(69,41,o),
(0,6,c),
(491,-6,o),
(1024,-1,o),
(1521,-1,cs)
);
}
);
width = 1553;
}
);
metricLeft = "=0";
metricRight = "=0";
unicode = 1583;
},
{
glyphname = "dal-ar.fina";
layers = (
{
anchors = (
{
name = damma;
pos = (-38,226);
},
{
name = fatha;
pos = (716,446);
},
{
name = kasra;
pos = (938,-82);
},
{
name = top;
pos = (1024,403);
}
);
layerId = m01;
shapes = (
{
closed = 1;
nodes = (
(1124,-6,o),
(1314,-4,o),
(1506,0,c),
(1506,132,l),
(1378,132,l),
(1500,78,l),
(1454,134,o),
(1440,214,o),
(1398,274,cs),
(1392,284,o),
(1380,284,o),
(1370,284,cs),
(1224,280,o),
(1079,278,o),
(934,278,cs),
(744,278,o),
(554,281,o),
(362,288,cs),
(355,288,o),
(351,289,o),
(351,292,cs),
(351,294,o),
(353,297,o),
(356,300,cs),
(426,378,o),
(470,426,o),
(522,490,c),
(510,500,l),
(404,390,o),
(294,276,o),
(174,166,c),
(428,155,o),
(681,149,o),
(935,149,cs),
(1039,149,o),
(1144,150,o),
(1248,152,c),
(1252,150,o),
(1254,146,o),
(1256,140,c),
(1065,134,o),
(883,129,o),
(698,129,cs),
(524,129,o),
(347,133,o),
(158,144,c),
(116,96,o),
(62,52,o),
(0,6,c),
(311,-1,o),
(622,-6,o),
(932,-6,cs)
);
}
);
width = 1456;
},
{
anchors = (
{
name = damma;
pos = (-338,226);
},
{
name = fatha;
pos = (666,446);
},
{
name = kasra;
pos = (638,-82);
},
{
name = top;
pos = (894,403);
}
);
associatedMasterId = m01;
attr = {
coordinates = (
100,
0
);
};
backgroundImage = {
alpha = 100;
imagePath = "1/image-0056.jpg";
locked = 1;
pos = (-5659,-5176);
scale = (20,20);
};
layerId = "A9B502D6-BD98-4899-95D2-8C8C92379346";
name = "{100, 0}";
shapes = (
{
closed = 1;
nodes = (
(871,-6,o),
(1018,-4,o),
(1206,0,c),
(1206,132,l),
(1078,132,l),
(1200,78,l),
(1154,134,o),
(1140,214,o),
(1098,274,cs),
(1092,284,o),
(1080,284,o),
(1070,284,cs),
(924,280,o),
(835,278,o),
(754,278,cs),
(647,278,o),
(554,281,o),
(362,288,cs),
(355,288,o),
(351,289,o),
(351,292,cs),
(351,294,o),
(353,297,o),
(356,300,cs),
(426,378,o),
(470,426,o),
(522,490,c),
(510,500,l),
(404,390,o),
(294,276,o),
(174,166,c),
(428,155,o),
(531,149,o),
(697,149,cs),
(765,149,o),
(844,150,o),
(948,152,c),
(952,150,o),
(954,146,o),
(956,140,c),
(765,134,o),
(662,129,o),
(555,129,cs),
(453,129,o),
(347,133,o),
(158,144,c),
(116,96,o),
(62,52,o),
(0,6,c),
(311,-1,o),
(510,-6,o),
(734,-6,cs)
);
}
);
width = 1156;
}
);
metricLeft = "=0";
},
{
glyphname = "reh-ar";
layers = (
{
anchors = (
{
name = damma;
pos = (19,212);
},
{
name = fatha;
pos = (430,652);
},
{
name = kasra;
pos = (359,-88);
},
{
name = top;
pos = (314,382);
}
);
layerId = m01;
shapes = (
{
closed = 1;
nodes = (
(448,490,o),
(438,482,o),
(426,474,cs),
(384,446,o),
(272,322,o),
(220,242,cs),
(212,230,o),
(206,212,o),
(226,204,cs),
(288,176,o),
(380,178,o),
(454,180,c),
(458,176,o),
(460,170,o),
(460,166,c),
(380,154,o),
(264,160,o),
(178,192,c),
(138,144,o),
(60,90,o),
(0,62,c),
(58,14,o),
(438,-26,o),
(598,22,cs),
(638,34,o),
(664,50,o),
(670,90,cs),
(694,240,o),
(570,406,o),
(472,474,cs)
);
}
);
width = 673;
}
);
metricLeft = "=0";
metricRight = "=0";
unicode = 1585;
},
{
glyphname = "reh-ar.fina";
layers = (
{
anchors = (
{
name = damma;
pos = (33,12);
},
{
name = fatha;
pos = (412,372);
},
{
name = kasra;
pos = (359,-261);
},
{
name = top;
pos = (302,200);
}
);
layerId = m01;
shapes = (
{
closed = 1;
nodes = (
(414,288,o),
(404,284,o),
(394,276,cs),
(362,250,o),
(252,128,o),
(202,56,cs),
(194,46,o),
(182,28,o),
(200,22,cs),
(256,2,o),
(344,-2,o),
(410,0,c),
(414,-4,o),
(416,-14,o),
(416,-18,c),
(344,-30,o),
(238,-24,o),
(160,4,c),
(124,-38,o),
(54,-102,o),
(0,-126,c),
(54,-170,o),
(396,-192,o),
(540,-154,cs),
(576,-144,o),
(616,-120,o),
(622,-84,cs),
(644,52,o),
(528,214,o),
(434,276,cs)
);
}
);
width = 548;
}
);
metricLeft = "=0";
},
{
glyphname = "seen-ar";
layers = (
{
anchors = (
{
name = damma;
pos = (246,-406);
},
{
name = fatha;
pos = (369,497);
},
{
name = kasra;
pos = (604,-145);
},
{
name = top;
pos = (483,391);
}
);
backgroundImage = {
alpha = 80;
imagePath = "images/seen-ar.2.jpg";
locked = 1;
pos = (-244,-1177);
scale = (20,20);
};
layerId = m01;
shapes = (
{
closed = 1;
nodes = (
(200,272,o),
(156,201,o),
(118,162,cs),
(111,155,o),
(114,146,o),
(120,145,cs),
(200,125,o),
(261,95,o),
(301,25,cs),
(372,-96,o),
(325,-699,o),
(302,-837,c),
(324,-812,l),
(246,-816,o),
(147,-798,o),
(40,-771,cs),
(35,-770,o),
(31,-770,o),
(28,-773,cs),
(-14,-823,o),
(-68,-871,o),
(-118,-911,cs),
(-127,-919,o),
(-131,-927,o),
(-118,-931,cs),
(28,-977,o),
(192,-993,o),
(379,-978,cs),
(402,-976,o),
(423,-952,o),
(426,-919,cs),
(437,-787,o),
(434,-638,o),
(441,-470,cs),
(449,-295,o),
(467,-113,o),
(472,54,c),
(426,-1,l),
(660,4,ls),
(695,5,o),
(726,28,o),
(726,83,cs),
(726,234,o),
(724,381,o),
(723,532,cs),
(723,545,o),
(716,543,o),
(709,532,cs),
(674,478,o),
(634,416,o),
(597,374,cs),
(589,364,o),
(586,348,o),
(587,337,cs),
(589,313,o),
(598,287,o),
(595,191,c),
(639,175,l),
(566,205,o),
(567,327,o),
(558,480,cs),
(557,490,o),
(549,491,o),
(545,484,cs),
(509,426,o),
(471,370,o),
(435,312,cs),
(431,305,o),
(429,301,o),
(430,295,cs),
(437,255,o),
(441,205,o),
(441,174,c),
(492,151,l),
(404,247,o),
(330,308,o),
(263,332,cs),
(245,339,o),
(237,326,o),
(232,319,cs)
);
}
);
width = 726;
}
);
metricLeft = "=noon-ar";
metricRight = "=0";
unicode = 1587;
},
{
glyphname = "seen-ar.fina";
layers = (
{
anchors = (
{
name = damma;
pos = (246,-406);
},
{
name = fatha;
pos = (362,495);
},
{
name = kasra;
pos = (604,-147);
},
{
name = top;
pos = (483,389);
}
);
layerId = m01;
shapes = (
{
alignment = -1;
pos = (0,-2);
ref = "seen-ar";
},
{
closed = 1;
nodes = (
(536,-4,o),
(630,-4,o),
(725,0,c),
(725,150,l),
(633,150,l),
(445,0,l)
);
}
);
width = 726;
}
);
},
{
glyphname = "seen-ar.medi";
layers = (
{
anchors = (
{
name = entry;
pos = (428,0);
},
{
name = exit;
},
{
name = top;
pos = (189,263);
}
);
backgroundImage = {
alpha = 80;
angle = -0.1;
imagePath = "images/seen-ar.medi.jpg";
locked = 1;
pos = (-850,-297);
scale = (20,20);
};
layerId = m01;
shapes = (
{
closed = 1;
nodes = (
(428,0,l),
(-20,0,l),
(-19,150,l),
(77,150,l),
(67,141,o),
(57,125,o),
(47,116,c),
(32,145,o),
(23,175,o),
(3,203,cs),
(-1,208,o),
(-1,216,o),
(3,220,cs),
(30,247,o),
(67,332,o),
(83,376,cs),
(88,390,o),
(99,390,o),
(103,379,cs),
(131,304,o),
(162,242,o),
(195,184,c),
(147,228,l),
(208,278,o),
(237,367,o),
(244,402,cs),
(246,411,o),
(260,412,o),
(263,398,cs),
(274,345,o),
(290,285,o),
(313,251,c),
(270,263,l),
(339,337,o),
(379,404,o),
(398,446,cs),
(402,454,o),
(415,455,o),
(416,441,cs),
(421,375,o),
(425,301,o),
(426,233,cs),
(426,192,o),
(426,154,o),
(423,120,c),
(385,150,l),
(428,150,l)
);
}
);
width = 428;
}
);
metricLeft = "=-20";
metricRight = "=0";
},
{
glyphname = "seen-ar.init";
layers = (
{
anchors = (
{
name = damma;
pos = (-2,255);
},
{
name = exit;
},
{
name = top;
pos = (213,315);
}
);
backgroundImage = {
alpha = 80;
angle = -0.8;
imagePath = "images/seen-ar.init.jpg";
locked = 1;
pos = (-1757,-252);
scale = (20,20);
};
layerId = m01;
shapes = (
{
closed = 1;
nodes = (
(137,-1,o),
(293,0,o),
(436,5,cs),
(476,6,o),
(488,31,o),
(486,56,cs),
(476,206,o),
(473,362,o),
(462,511,cs),
(461,527,o),
(448,527,o),
(443,511,cs),
(424,452,o),
(369,393,o),
(341,350,cs),
(338,346,o),
(336,343,o),
(338,335,cs),
(350,271,o),
(350,207,o),
(352,134,c),
(369,199,l),
(296,230,o),
(329,328,o),
(305,449,cs),
(302,464,o),
(287,469,o),
(284,452,cs),
(274,399,o),
(222,316,o),
(185,262,cs),
(181,257,o),
(178,249,o),
(179,243,cs),
(186,192,o),
(197,127,o),
(221,94,c),
(229,141,l),
(140,201,o),
(145,308,o),
(118,408,cs),
(116,417,o),
(107,427,o),
(101,412,cs),
(76,350,o),
(39,271,o),
(3,217,cs),
(0,213,o),
(0,209,o),
(2,205,cs),
(19,174,o),
(30,146,o),
(44,130,c),
(105,150,l),
(-20,150,l),
(-20,0,l)
);
}
);
width = 486;
}
);
metricLeft = "=-20";
metricRight = "=0";
},
{
glyphname = "sad-ar";
layers = (
{
anchors = (
{
name = damma;
pos = (186,-228);
},
{
name = fatha;
pos = (1108,369);
},
{
name = kasra;
pos = (1025,-97);
},
{
name = top;
pos = (748,378);
}
);
backgroundImage = {
alpha = 80;
angle = 0.5;
imagePath = "images/sad-ar.jpg";
locked = 1;
pos = (-275,-842);
scale = (20,20);
};
layerId = m01;
shapes = (
{
closed = 1;
nodes = (
(342,-672,o),
(361,-663,o),
(363,-636,cs),
(371,-530,o),
(388,-184,o),
(407,46,cs),
(426,275,o),
(366,381,o),
(200,446,cs),
(192,449,o),
(187,449,o),
(181,438,cs),
(152,388,o),
(115,338,o),
(76,299,cs),
(70,293,o),
(68,285,o),
(78,281,cs),
(155,248,o),
(263,203,o),
(273,75,cs),
(289,-128,o),
(263,-337,o),
(250,-530,c),
(268,-498,l),
(188,-504,o),
(113,-496,o),
(44,-470,cs),
(37,-467,o),
(30,-467,o),
(26,-472,cs),
(-23,-533,o),
(-71,-590,o),
(-118,-606,cs),
(-126,-609,o),
(-129,-617,o),
(-120,-621,cs),
(3,-671,o),
(164,-686,o),
(321,-674,cs)
);
},
{
closed = 1;
nodes = (
(2077,-6,o),
(2153,-6,o),
(2153,30,cs),
(2153,127,o),
(2125,210,o),
(2075,276,cs),
(2065,290,o),
(2050,288,o),
(2031,288,cs),
(1706,280,o),
(1375,272,o),
(1044,267,cs),
(841,264,o),
(674,266,o),
(496,277,cs),
(443,280,o),
(393,280,o),
(371,311,c),
(348,141,l),
(859,149,o),
(1370,158,o),
(1866,162,cs),
(1890,162,o),
(1899,153,o),
(1902,143,cs),
(1903,139,o),
(1901,134,o),
(1892,134,cs),
(1474,122,o),
(1004,113,o),
(556,113,cs),
(514,113,o),
(476,119,o),
(467,122,cs),
(420,138,o),
(461,167,o),
(445,178,c),
(365,179,l),
(365,0,l),
(633,-1,o),
(987,4,o),
(1262,3,cs),
(1545,2,o),
(1750,-5,o),
(2054,-6,cs)
);
}
);
width = 2153;
}
);
metricLeft = "=noonghunna-ar";
metricRight = "=0";
unicode = 1589;
},
{
glyphname = "sad-ar.fina";
layers = (
{
anchors = (
{
name = damma;
pos = (186,-228);
},
{
name = fatha;
pos = (1108,373);
},
{
name = kasra;
pos = (1025,-93);
},
{
name = top;
pos = (748,382);
}
);
layerId = m01;
shapes = (
{
pos = (0,4);
ref = "sad-ar";
},
{
closed = 1;
nodes = (
(1964,-4,o),
(2058,-4,o),
(2153,0,c),
(2153,150,l),
(2061,150,l),
(1873,0,l)
);
}
);
width = 2153;
}
);
metricLeft = "=sad-ar";
metricRight = "=0";
},
{
glyphname = "sad-ar.medi";
layers = (
{
anchors = (
{
name = entry;
pos = (1600,0);
},
{
name = exit;
},
{
name = fatha;
pos = (749,394);
},
{
name = kasra;
pos = (883,-82);
},
{
name = top;
pos = (389,368);
}
);
backgroundImage = {
alpha = 80;
angle = 0.7;
imagePath = "images/sad-ar.medi.jpg";
locked = 1;
pos = (-531,-695);
scale = (20,20);
};
layerId = m01;
shapes = (
{
closed = 1;
nodes = (
(155,543,o),
(146,548,o),
(140,535,cs),
(98,442,o),
(54,402,o),
(36,382,cs),
(27,372,o),
(24,363,o),
(27,349,cs),
(42,272,o),
(46,189,o),
(43,105,c),
(77,150,l),
(-20,150,l),
(-20,1,l),
(539,7,o),
(1059,9,o),
(1600,0,c),
(1600,150,l),
(1533,150,l),
(1600,136,l),
(1577,179,o),
(1558,233,o),
(1539,278,cs),
(1532,294,o),
(1516,295,o),
(1505,295,cs),
(1080,288,o),
(668,274,o),
(131,295,c),
(172,230,l),
(163,332,o),
(155,430,o),
(155,532,cs)
);
},
{
closed = 1;
nodes = (
(584,148,o),
(981,158,o),
(1379,161,cs),
(1395,161,o),
(1403,136,o),
(1376,136,cs),
(973,132,o),
(575,116,o),
(188,126,c),
(186,151,l)
);
}
);
width = 1600;
}
);
metricLeft = "=-20";
metricRight = "=0";
},
{
glyphname = "sad-ar.init";
layers = (
{
anchors = (
{
name = exit;
},
{
name = fatha;
pos = (833,434);
},
{
name = kasra;
pos = (750,-104);
},
{
name = top;
pos = (473,408);
}
);
backgroundImage = {
alpha = 80;
angle = -0.8;
imagePath = "images/sad-ar.init.jpg";
locked = 1;
pos = (-1965,-569);
scale = (20,20);
};
layerId = m01;
shapes = (
{
closed = 1;
nodes = (
(96,652,o),
(87,643,o),
(83,635,cs),
(52,578,o),
(18,524,o),
(-15,488,cs),
(-25,476,o),
(-24,463,o),
(-22,451,cs),
(-9,360,o),
(5,230,o),
(16,119,c),
(31,150,l),
(-20,150,l),
(-20,0,l),
(384,4,o),
(789,12,o),
(1181,12,cs),
(1395,12,o),
(1609,6,o),
(1823,3,cs),
(1853,3,o),
(1883,5,o),
(1913,6,cs),
(1945,7,o),
(1973,11,o),
(1976,36,cs),
(1989,134,o),
(1965,228,o),
(1919,315,cs),
(1912,328,o),
(1896,333,o),
(1882,333,cs),
(1628,327,o),
(1329,321,o),
(1052,316,cs),
(767,311,o),
(481,311,o),
(196,309,cs),
(176,309,o),
(138,308,o),
(136,327,cs),
(125,419,o),
(131,514,o),
(100,636,cs)
);
},
{
closed = 1;
nodes = (
(335,162,o),
(509,168,o),
(686,170,cs),
(1023,173,o),
(1372,179,o),
(1702,191,cs),
(1717,192,o),
(1746,186,o),
(1746,171,cs),
(1746,167,o),
(1741,165,o),
(1737,165,cs),
(1444,150,o),
(685,142,o),
(160,135,c),
(158,163,l)
);
}
);
width = 1980;
}
);
metricLeft = "=-20@10";
metricRight = "=0";
},
{
glyphname = "tah-ar";
layers = (
{
anchors = (
{
name = damma;
pos = (-90,301);
},
{
name = fatha;
pos = (999,394);
},
{
name = kasra;
pos = (1011,-120);
},
{
name = top;
pos = (674,403);
}
);
backgroundImage = {
alpha = 80;
imagePath = "images/tah-ar.jpg";
locked = 1;
pos = (-289,-418);
scale = (20,20);
};
layerId = m01;
shapes = (
{
closed = 1;
nodes = (
(215,1424,o),
(202,1427,o),
(191,1408,cs),
(158,1353,o),
(122,1303,o),
(77,1258,cs),
(69,1250,o),
(66,1237,o),
(66,1229,cs),
(60,1096,o),
(56,962,o),
(48,829,cs),
(34,603,o),
(-20,103,o),
(8,22,cs),
(12,10,o),
(20,2,o),
(37,2,cs),
(531,2,o),
(1022,18,o),
(1523,13,cs),
(1825,10,o),
(2126,9,o),
(2428,6,cs),
(2547,5,o),
(2664,10,o),
(2785,19,cs),
(2815,21,o),
(2840,31,o),
(2844,69,cs),
(2853,151,o),
(2806,272,o),
(2759,319,cs),
(2746,332,o),
(2733,331,o),
(2720,331,cs),
(1393,302,ls),
(964,293,o),
(188,302,o),
(105,333,c),
(86,165,l),
(901,172,o),
(1717,176,o),
(2518,186,cs),
(2550,186,o),
(2563,174,o),
(2563,166,cs),
(2563,157,o),
(2549,158,o),
(2534,158,cs),
(2162,151,o),
(1787,141,o),
(1418,137,cs),
(990,132,o),
(562,135,o),
(152,134,cs),
(129,134,o),
(127,144,o),
(131,150,cs),
(139,163,o),
(166,165,o),
(184,166,c),
(140,292,l),
(159,496,o),
(176,700,o),
(191,904,cs),
(203,1074,o),
(206,1235,o),
(214,1405,cs)
);
}
);
width = 2845;
}
);
metricLeft = "=00";
metricRight = "=0";
unicode = 1591;
},
{
glyphname = "tah-ar.fina";
layers = (
{
anchors = (
{
name = damma;
pos = (-50,301);
},
{
name = fatha;
pos = (1000,385);
},
{
name = kasra;
pos = (1009,-129);
},
{
name = top;
pos = (675,397);
}
);
backgroundImage = {
alpha = 80;
angle = -0.4;
imagePath = "images/tah-ar.fina.jpg";
locked = 1;
pos = (-273,-232);
scale = (20,20);
};
layerId = m01;
shapes = (
{
closed = 1;
nodes = (
(1842,0,o),
(2319,-6,o),
(2373,0,c),
(2373,150,l),
(2332,202,o),
(2285,269,o),
(2258,308,cs),
(2247,324,o),
(2235,320,o),
(2222,320,cs),
(1394,291,ls),
(1075,280,o),
(565,301,o),
(309,315,cs),
(217,320,o),
(178,313,o),
(183,426,cs),
(186,488,o),
(207,1182,o),
(206,1240,cs),
(205,1293,o),
(200,1320,o),
(199,1344,cs),
(198,1379,o),
(178,1363,o),
(176,1346,cs),
(170,1296,o),
(114,1221,o),
(69,1170,cs),
(63,1163,o),
(54,1157,o),
(54,1149,cs),
(54,1133,o),
(68,1109,o),
(66,1067,cs),
(61,968,o),
(55,798,o),
(54,693,cs),
(53,465,o),
(50,98,o),
(14,35,cs),
(11,30,o),
(-3,24,o),
(0,19,c),
(2,13,o),
(22,10,o),
(31,9,cs),
(291,-26,o),
(1021,-5,o),
(1522,-2,cs)
);
},
{
closed = 1;
nodes = (
(999,123,o),
(315,146,o),
(229,155,cs),
(199,158,o),
(188,164,o),
(188,170,cs),
(188,175,o),
(191,177,o),
(196,178,c),
(858,160,o),
(1322,163,o),
(2083,168,cs),
(2115,168,o),
(2128,155,o),
(2128,147,cs),
(2128,138,o),
(2114,140,o),
(2099,140,cs),
(1872,128,o),
(1645,127,o),
(1418,125,cs)
);
}
);
width = 2373;
}
);
metricLeft = "=0";
metricRight = "=0";
},
{
glyphname = "tah-ar.medi";
layers = (
{
anchors = (
{
name = damma;
pos = (-50,301);
},
{
name = entry;
pos = (1720,0);
},
{
name = exit;
},
{
name = fatha;
pos = (1000,385);
},
{
name = kasra;
pos = (1009,-129);
},
{
name = top;
pos = (635,397);
}
);
backgroundImage = {
alpha = 80;
angle = 0.9;
imagePath = "images/tah-ar.medi.jpg";
locked = 1;
pos = (-729,-485);
scale = (20,20);
};
layerId = m01;
shapes = (
{
closed = 1;
nodes = (
(601,-1,o),
(1162,5,o),
(1720,4,c),
(1720,150,l),
(1699,196,o),
(1679,243,o),
(1664,275,cs),
(1646,313,o),
(1625,317,o),
(1598,316,cs),
(1123,300,o),
(410,290,o),
(125,311,c),
(120,162,l),
(579,167,o),
(1038,164,o),
(1497,168,cs),
(1506,168,o),
(1510,139,o),
(1496,139,cs),
(1012,139,o),
(539,133,o),
(55,125,c),
(22,0,l)
);
},
{
closed = 1;
nodes = (
(169,0,l),
(165,210,o),
(158,418,o),
(154,705,cs),
(153,787,o),
(161,938,o),
(159,1093,cs),
(159,1153,o),
(156,1215,o),
(150,1277,cs),
(148,1295,o),
(136,1298,o),
(127,1287,c),
(96,1239,o),
(62,1190,o),
(30,1147,cs),
(23,1137,o),
(22,1130,o),
(27,1109,cs),
(32,1086,o),
(38,1062,o),
(38,997,cs),
(38,722,o),
(52,334,o),
(18,128,c),
(65,146,l),
(-20,149,l),
(-20,0,l)
);
}
);
width = 1720;
}
);
metricLeft = "=-20";
metricRight = "=0";
},
{
glyphname = "tah-ar.init";
layers = (
{
anchors = (
{
name = damma;
pos = (-58,364);
},
{
name = exit;
},
{
name = fatha;
pos = (689,432);
},
{
name = kasra;
pos = (698,-102);
},
{
name = top;
pos = (420,377);
}
);
backgroundImage = {
alpha = 80;
angle = 0.5;
imagePath = "images/tah-ar.init.jpg";
locked = 1;
pos = (-678,-274);
scale = (20,20);
};
layerId = m01;
shapes = (
{
closed = 1;
nodes = (
(373,5,o),
(767,5,o),
(1160,7,cs),
(1454,8,o),
(1756,2,o),
(2050,5,cs),
(2092,5,o),
(2112,28,o),
(2115,70,cs),
(2121,147,o),
(2098,222,o),
(2054,287,cs),
(2043,304,o),
(2025,306,o),
(2010,305,cs),
(1731,292,o),
(1467,292,o),
(1195,285,cs),
(866,277,o),
(537,282,o),
(208,287,cs),
(174,288,o),
(147,304,o),
(147,326,cs),
(150,576,o),
(151,821,o),
(151,1071,cs),
(151,1164,o),
(146,1254,o),
(142,1340,cs),
(141,1361,o),
(126,1369,o),
(115,1351,cs),
(85,1302,o),
(45,1248,o),
(15,1217,cs),
(6,1208,o),
(9,1193,o),
(11,1178,cs),
(26,1084,o),
(34,935,o),
(34,837,cs),
(34,595,o),
(22,353,o),
(24,110,c),
(39,150,l),
(-20,150,l),
(-20,3,l)
);
},
{
closed = 1;
nodes = (
(192,127,o),
(144,129,o),
(144,146,cs),
(144,152,o),
(154,154,o),
(160,154,cs),
(733,156,o),
(1290,163,o),
(1863,163,cs),
(1876,163,o),
(1875,145,o),
(1864,145,cs),
(1305,131,o),
(768,133,o),
(209,127,cs)
);
}
);
width = 2116;
}
);
metricLeft = "=-20";
metricRight = "=0";
},
{
glyphname = "ain-ar";
layers = (
{
anchors = (
{
name = damma;
pos = (-85,11);
},
{
name = fatha;
pos = (584,715);
},
{
name = kasra;
pos = (1370,-98);
},
{
name = top;
pos = (545,533);
}
);
backgroundImage = {
alpha = 80;
imagePath = "images/ain-ar.1.jpg";
locked = 1;
pos = (-231,-498);
scale = (20,20);
};
layerId = m01;
shapes = (
{
closed = 1;
nodes = (
(408,-213,o),
(798,-170,o),
(1107,-119,cs),
(1122,-116,o),
(1138,-104,o),
(1153,-96,cs),
(1187,-78,o),
(1220,-54,o),
(1254,-36,c),
(1271,-29,o),
(1269,-22,o),
(1257,-22,c),
(1002,-31,o),
(727,-35,o),
(450,-23,cs),
(383,-20,o),
(297,-7,o),
(246,26,cs),
(208,50,o),
(188,74,o),
(173,108,cs),
(165,125,o),
(187,133,o),
(193,117,cs),
(207,83,o),
(231,56,o),
(277,31,cs),
(369,-20,o),
(607,-1,o),
(822,-2,cs),
(1034,-3,o),
(1441,-9,o),
(1459,-9,cs),
(1476,-9,o),
(1495,-8,o),
(1513,3,cs),
(1564,36,o),
(1631,98,o),
(1676,112,cs),
(1698,119,o),
(1687,130,o),
(1672,129,cs),
(1389,103,o),
(1132,119,o),
(900,179,cs),
(770,213,o),
(664,298,o),
(577,427,cs),
(564,446,o),
(557,479,o),
(571,502,cs),
(598,547,o),
(627,573,o),
(662,614,cs),
(673,626,o),
(659,644,o),
(646,630,cs),
(572,551,o),
(506,471,o),
(432,362,cs),
(421,346,o),
(417,327,o),
(420,304,cs),
(429,242,o),
(462,183,o),
(524,127,c),
(581,145,l),
(527,158,o),
(475,148,o),
(397,249,cs),
(343,320,o),
(297,346,o),
(216,336,cs),
(121,324,o),
(-9,207,o),
(0,22,cs),
(5,-73,o),
(59,-146,o),
(178,-169,cs)
);
}
);
width = 1688;
}
);
metricLeft = "=0";
metricRight = "=0";
unicode = 1593;
},
{
glyphname = "ain-ar.fina";
layers = (
{
anchors = (
{
name = damma;
pos = (17,-91);
},
{
name = fatha;
pos = (192,607);
},
{
name = top;
pos = (279,512);
}
);
backgroundImage = {
alpha = 80;
angle = -1.3;
imagePath = "images/seen-ar.init.2.jpg";
locked = 1;
pos = (-127,-910);
scale = (20,20);
};
layerId = m01;
shapes = (
{
closed = 1;
nodes = (
(741,-857,o),
(965,-782,o),
(1164,-607,cs),
(1176,-597,o),
(1171,-585,o),
(1156,-593,cs),
(971,-690,o),
(789,-707,o),
(606,-687,cs),
(401,-665,o),
(271,-552,o),
(271,-374,cs),
(271,-309,o),
(302,-153,o),
(342,53,c),
(302,0,l),
(364,0,l),
(364,150,l),
(329,150,l),
(362,135,l),
(357,280,o),
(356,414,o),
(346,570,cs),
(345,579,o),
(338,582,o),
(333,566,cs),
(312,503,o),
(235,419,o),
(192,355,c),
(262,306,l),
(211,375,o),
(176,442,o),
(115,503,cs),
(111,507,o),
(104,508,o),
(100,497,cs),
(90,468,o),
(37,401,o),
(3,348,c),
(-1,341,o),
(-1,336,o),
(5,329,cs),
(91,222,o),
(249,49,o),
(228,-49,c),
(249,55,l),
(217,-102,o),
(154,-408,o),
(159,-564,cs),
(165,-735,o),
(329,-852,o),
(556,-854,cs)
);
}
);
width = 364;
}
);
metricLeft = "=0";
metricRight = "=0@10";
},
{
glyphname = "ain-ar.medi";
layers = (
{
anchors = (
{
name = damma;
pos = (27,317);
},
{
name = entry;
pos = (480,0);
},
{
name = exit;
},
{
name = fatha;
pos = (275,627);
},
{
name = kasra;
pos = (335,-148);
},
{
name = top;
pos = (362,498);
}
);
layerId = m01;
shapes = (
{
closed = 1;
nodes = (
(480,0,l),
(480,150,l),
(406,150,l),
(476,118,l),
(486,248,o),
(478,416,o),
(447,552,cs),
(445,560,o),
(441,560,o),
(436,553,cs),
(380,477,o),
(315,407,o),
(246,344,c),
(360,338,l),
(295,380,o),
(227,432,o),
(183,493,cs),
(179,498,o),
(176,498,o),
(173,494,cs),
(130,435,o),
(83,377,o),
(30,332,cs),
(23,326,o),
(22,322,o),
(27,317,cs),
(93,251,o),
(169,192,o),
(250,138,c),
(280,150,l),
(-20,150,l),
(-20,0,l)
);
}
);
width = 480;
}
);
metricLeft = "=-20";
metricRight = "=0";
},
{
glyphname = "ain-ar.init";
layers = (
{
anchors = (
{
name = damma;
pos = (7,263);
},
{
name = exit;
},
{
name = fatha;
pos = (184,600);
},
{
name = kasra;
pos = (497,-115);
},
{
name = top;
pos = (245,527);
}
);
layerId = m01;
shapes = (
{
closed = 1;
nodes = (
(307,-4,o),
(617,0,o),
(945,0,cs),
(953,0,o),
(962,0,o),
(972,9,cs),
(1002,37,o),
(1042,74,o),
(1098,107,cs),
(1101,109,o),
(1102,114,o),
(1096,114,cs),
(883,106,o),
(647,115,o),
(456,162,cs),
(270,208,o),
(122,359,o),
(184,428,cs),
(293,550,ls),
(302,560,o),
(290,571,o),
(281,562,cs),
(44,302,ls),
(-19,233,o),
(56,124,o),
(154,104,c),
(176,150,l),
(-20,150,l),
(-20,0,l)
);
}
);
width = 1100;
}
);
metricLeft = "=-20";
metricRight = "=0";
},
{
color = 3;
glyphname = "fehDotless-ar";
layers = (
{
anchors = (
{
name = damma;
pos = (-100,68);
},
{
name = fatha;
pos = (1771,802);
},
{
name = kasra;
pos = (740,-84);
},
{
name = top;
pos = (1612,587);
}
);
layerId = m01;
shapes = (
{
closed = 1;
nodes = (
(2009,0,o),
(2114,7,o),
(2149,10,cs),
(2184,13,o),
(2217,36,o),
(2217,103,cs),
(2217,469,o),
(2014,722,o),
(1829,687,cs),
(1686,660,o),
(1594,543,o),
(1594,378,cs),
(1594,265,o),
(1651,200,o),
(1710,185,cs),
(1811,159,o),
(1908,177,o),
(2021,182,cs),
(2042,183,o),
(2048,160,o),
(2031,159,cs),
(1713,138,o),
(1396,136,o),
(1078,135,cs),
(785,134,o),
(491,138,o),
(198,154,c),
(192,154,o),
(185,159,o),
(180,166,cs),
(176,172,o),
(171,173,o),
(165,167,cs),
(118,114,o),
(50,28,o),
(7,16,cs),
(-3,13,o),
(-3,1,o),
(9,1,cs),
(349,1,o),
(690,4,o),
(1030,4,cs),
(1324,4,o),
(1619,0,o),
(1913,0,cs)
);
},
{
closed = 1;
nodes = (
(1876,406,o),
(1869,413,o),
(1869,421,cs),
(1869,429,o),
(1876,436,o),
(1884,436,cs),
(1892,436,o),
(1899,429,o),
(1899,421,cs),
(1899,413,o),
(1892,406,o),
(1884,406,cs)
);
}
);
width = 2217;
}
);
metricLeft = "=0";
metricRight = "=0";
unicode = 1697;
},
{
glyphname = "fehDotless-ar.fina";
layers = (
{
anchors = (
{
name = damma;
pos = (3,68);
},
{
name = fatha;
pos = (2327,745);
},
{
name = kasra;
pos = (1259,-84);
},
{
name = top;
pos = (2090,528);
}
);
backgroundImage = {
alpha = 80;
angle = 0.2;
imagePath = "images/fehDotless-ar.fina.jpg";
locked = 1;
pos = (-327,-306);
scale = (20,20);
};
layerId = m01;
shapes = (
{
closed = 1;
nodes = (
(1693,3,o),
(2106,-1,o),
(2571,2,c),
(2571,150,l),
(2483,150,l),
(2488,119,l),
(2528,126,o),
(2562,193,o),
(2568,251,cs),
(2578,353,o),
(2566,436,o),
(2535,507,cs),
(2485,623,o),
(2405,672,o),
(2314,660,cs),
(2151,639,o),
(2065,504,o),
(2071,356,cs),
(2078,204,o),
(2212,149,o),
(2359,121,c),
(2299,152,l),
(2245,144,o),
(2230,134,o),
(2119,131,cs),
(1869,124,o),
(1508,127,o),
(1199,129,cs),
(867,132,o),
(367,139,o),
(202,153,cs),
(196,154,o),
(191,153,o),
(185,148,cs),
(130,105,o),
(75,55,o),
(20,22,cs),
(13,18,o),
(16,7,o),
(25,7,cs),
(426,7,o),
(827,4,o),
(1228,0,c)
);
},
{
closed = 1;
nodes = (
(2329,417,o),
(2322,424,o),
(2322,432,cs),
(2322,440,o),
(2329,447,o),
(2337,447,cs),
(2345,447,o),
(2352,440,o),
(2352,432,cs),
(2352,424,o),
(2345,417,o),
(2337,417,cs)
);
}
);
width = 2571;
}
);
metricRight = "=0";
},
{
glyphname = "fehDotless-ar.medi";
layers = (
{
anchors = (
{
name = damma;
pos = (-5,334);
},
{
name = entry;
pos = (462,0);
},
{
name = exit;
},
{
name = fatha;
pos = (242,728);
},
{
name = kasra;
pos = (254,-112);
},
{
name = top;
pos = (94,561);
}
);
backgroundImage = {
alpha = 80;
angle = 1.7;
imagePath = "images/fehDotless-ar.medi.jpg";
locked = 1;
pos = (-2098,-932);
scale = (20,20);
};
layerId = m01;
shapes = (
{
closed = 1;
nodes = (
(462,1,l),
(462,150,l),
(387,150,l),
(395,66,l),
(435,137,o),
(464,246,o),
(462,348,cs),
(460,481,o),
(402,601,o),
(240,601,cs),
(122,601,o),
(0,491,o),
(0,342,cs),
(0,226,o),
(92,125,o),
(136,88,c),
(111,150,l),
(-20,150,l),
(-20,1,l)
);
},
{
closed = 1;
nodes = (
(233,374,o),
(226,381,o),
(226,389,cs),
(226,397,o),
(233,404,o),
(241,404,cs),
(249,404,o),
(256,397,o),
(256,389,cs),
(256,381,o),
(249,374,o),
(241,374,cs)
);
}
);
width = 462;
}
);
metricLeft = "=-20";
metricRight = "=0";
},
{
glyphname = "fehDotless-ar.init";
layers = (
{
anchors = (
{
name = bottom;
pos = (505,50);
},
{
name = damma;
pos = (14,340);
},
{
name = exit;
},
{
name = fatha;
pos = (291,767);
},
{
name = kasra;
pos = (301,-98);
},
{
name = top;
pos = (82,570);
}
);
backgroundImage = {
alpha = 80;
angle = 0.1;
imagePath = "images/fehDotless-ar.init.jpg";
locked = 1;
pos = (-1822,-238);
scale = (20,20);
};
layerId = m01;
shapes = (
{
closed = 1;
nodes = (
(122,0,o),
(345,2,o),
(430,9,cs),
(470,11,o),
(537,29,o),
(545,74,cs),
(584,295,o),
(463,632,o),
(275,639,cs),
(81,647,o),
(-53,303,o),
(104,208,cs),
(181,162,o),
(311,172,o),
(388,181,c),
(397,166,l),
(284,144,o),
(83,150,o),
(-20,150,c),
(-20,0,l)
);
},
{
closed = 1;
nodes = (
(264,390,o),
(257,397,o),
(257,405,cs),
(257,413,o),
(264,420,o),
(272,420,cs),
(280,420,o),
(287,413,o),
(287,405,cs),
(287,397,o),
(280,390,o),
(272,390,cs)
);
}
);
width = 552;
}
);
metricLeft = "=-20";
metricRight = "=0";
},
{
glyphname = "qafDotless-ar";
layers = (
{
anchors = (
{
name = damma;
pos = (-103,207);
},
{
name = fatha;
pos = (252,675);
},
{
name = kasra;
pos = (484,-607);
},
{
name = top;
pos = (75,494);
}
);
backgroundImage = {
alpha = 80;
imagePath = "images/qafDotless-ar.jpg";
locked = 1;
pos = (-391,-653);
scale = (20,20);
};
layerId = m01;
shapes = (
{
closed = 1;
nodes = (
(432,-507,o),
(607,-511,o),
(764,-474,cs),
(822,-460,o),
(849,-425,o),
(840,-362,cs),
(828,-276,o),
(797,-202,o),
(747,-139,cs),
(740,-130,o),
(730,-125,o),
(714,-125,cs),
(647,-125,o),
(583,-126,o),
(525,-119,cs),
(484,-114,o),
(433,-84,o),
(453,-46,cs),
(478,2,o),
(503,31,o),
(525,80,cs),
(562,163,o),
(562,253,o),
(532,337,cs),
(481,478,o),
(377,545,o),
(277,545,cs),
(121,545,o),
(15,412,o),
(2,299,cs),
(-16,140,o),
(69,56,o),
(161,27,cs),
(246,0,o),
(327,8,o),
(393,8,cs),
(402,8,o),
(407,0,o),
(404,-9,c),
(353,-82,o),
(323,-159,o),
(308,-201,cs),
(293,-242,o),
(313,-267,o),
(335,-283,cs),
(374,-312,o),
(480,-317,o),
(579,-317,cs),
(604,-317,o),
(619,-324,o),
(624,-344,cs),
(626,-355,o),
(614,-353,o),
(601,-353,cs),
(465,-353,o),
(386,-345,o),
(317,-320,cs),
(309,-317,o),
(300,-309,o),
(294,-315,cs),
(235,-380,o),
(153,-432,o),
(126,-432,cs),
(117,-432,o),
(115,-441,o),
(123,-446,cs),
(162,-473,o),
(210,-488,o),
(266,-493,cs)
);
},
{
closed = 1;
nodes = (
(272,253,o),
(265,260,o),
(265,268,cs),
(265,276,o),
(272,283,o),
(280,283,cs),
(288,283,o),
(295,276,o),
(295,268,cs),
(295,260,o),
(288,253,o),
(280,253,cs)
);
}
);
width = 842;
}
);
metricLeft = "=0";
metricRight = "=0";
unicode = 1647;
},
{
glyphname = "qafDotless-ar.fina";
layers = (
{
anchors = (
{
name = damma;
pos = (-69,117);
},
{
name = fatha;
pos = (239,564);
},
{
name = kasra;
pos = (333,-592);
},
{
name = top;
pos = (54,349);
}
);
backgroundImage = {
alpha = 80;
angle = 0.5;
imagePath = "images/qafDotless-ar.fina.jpg";
locked = 1;
pos = (-246,-570);
scale = (20,20);
};
layerId = m01;
shapes = (
{
closed = 1;
nodes = (
(412,-497,o),
(497,-490,o),
(592,-463,cs),
(606,-459,o),
(617,-447,o),
(620,-437,cs),
(647,-356,o),
(629,-271,o),
(572,-182,cs),
(567,-174,o),
(555,-168,o),
(542,-168,cs),
(478,-168,o),
(433,-164,o),
(371,-154,cs),
(333,-148,o),
(334,-124,o),
(343,-115,cs),
(387,-67,o),
(426,-16,o),
(467,36,c),
(390,0,l),
(512,0,l),
(512,150,l),
(467,150,l),
(509,128,l),
(508,181,o),
(504,232,o),
(491,269,cs),
(454,381,o),
(371,473,o),
(257,473,cs),
(144,473,o),
(54,349,o),
(31,230,cs),
(15,145,o),
(49,86,o),
(110,45,cs),
(178,-1,o),
(262,-4,o),
(342,-4,cs),
(359,-4,o),
(366,-26,o),
(352,-45,cs),
(301,-117,o),
(236,-178,o),
(202,-227,cs),
(170,-273,o),
(198,-305,o),
(250,-315,cs),
(306,-326,o),
(348,-322,o),
(409,-322,cs),
(426,-322,o),
(439,-336,o),
(420,-339,cs),
(345,-349,o),
(266,-353,o),
(172,-303,cs),
(169,-301,o),
(165,-300,o),
(162,-304,c),
(141,-334,o),
(38,-423,o),
(11,-431,cs),
(0,-434,o),
(-8,-444,o),
(15,-453,cs),
(109,-489,o),
(214,-495,o),
(331,-496,cs)
);
},
{
closed = 1;
nodes = (
(270,216,o),
(263,223,o),
(263,231,cs),
(263,239,o),
(270,246,o),
(278,246,cs),
(286,246,o),
(293,239,o),
(293,231,cs),
(293,223,o),
(286,216,o),
(278,216,cs)
);
}
);
width = 512;
}
);
metricLeft = "=0";
metricRight = "=0@10";
},
{
glyphname = "kaf-ar";
layers = (
{
anchors = (
{
name = damma;
pos = (-4,189);
},
{
name = fatha;
pos = (40,1237);
}
);
backgroundImage = {
alpha = 80;
imagePath = "images/kaf-ar.jpg";
locked = 1;
pos = (-189,-237);
scale = (20,20);
};
layerId = m01;
shapes = (
{
closed = 1;
nodes = (
(1157,-37,o),
(1945,0,o),
(2457,6,cs),
(2617,8,o),
(2778,0,o),
(2938,1,cs),
(3084,2,o),
(3132,15,o),
(3123,63,cs),
(3105,158,o),
(3080,244,o),
(3033,304,cs),
(3016,325,o),
(2992,319,o),
(2954,317,cs),
(2243,277,o),
(1474,285,o),
(637,269,cs),
(487,266,o),
(338,289,o),
(334,423,cs),
(328,638,o),
(320,916,o),
(327,1192,cs),
(329,1278,o),
(319,1384,o),
(304,1470,cs),
(302,1483,o),
(292,1486,o),
(286,1475,cs),
(230,1367,o),
(181,1278,o),
(159,1262,cs),
(145,1252,o),
(141,1243,o),
(148,1228,cs),
(168,1186,o),
(178,1125,o),
(178,1044,cs),
(178,767,o),
(178,455,o),
(181,184,cs),
(181,154,o),
(205,139,o),
(248,137,cs),
(728,116,o),
(1991,146,o),
(2859,174,cs),
(2890,175,o),
(2890,151,o),
(2860,150,cs),
(1991,108,o),
(1024,100,o),
(415,100,cs),
(220,100,o),
(181,120,o),
(170,126,cs),
(160,131,o),
(155,128,o),
(151,122,cs),
(129,89,o),
(73,51,o),
(10,5,cs),
(-3,-4,o),
(-8,-22,o),
(20,-25,cs),
(119,-37,o),
(294,-37,o),
(440,-37,cs)
);
}
);
width = 3124;
}
);
metricLeft = "=0";
metricRight = "=0";
unicode = 1603;
},
{
glyphname = "kaf-ar.fina";
layers = (
{
anchors = (
{
name = damma;
pos = (36,159);
},
{
name = fatha;
pos = (190,1237);
}
);
backgroundImage = {
alpha = 80;
angle = 0.8;
imagePath = "images/kaf-ar.fina.jpg";
locked = 1;
pos = (-199,-370);
scale = (20,20);
};
layerId = m01;
shapes = (
{
closed = 1;
nodes = (
(1092,-6,o),
(2151,-2,o),
(3198,0,c),
(3198,150,l),
(3101,280,ls),
(3080,309,o),
(3069,305,o),
(3050,305,cs),
(2170,298,o),
(581,241,o),
(439,336,c),
(430,364,o),
(422,413,o),
(422,465,cs),
(422,707,o),
(446,915,o),
(460,1157,cs),
(465,1246,o),
(468,1353,o),
(466,1442,cs),
(466,1461,o),
(460,1465,o),
(455,1450,cs),
(435,1388,o),
(367,1307,o),
(325,1259,cs),
(318,1251,o),
(319,1243,o),
(319,1235,cs),
(322,1179,o),
(331,1114,o),
(324,1006,cs),
(308,785,o),
(296,512,o),
(278,317,cs),
(274,271,o),
(266,228,o),
(258,189,cs),
(257,182,o),
(266,172,o),
(274,172,cs),
(1147,140,o),
(2054,150,o),
(2963,150,cs),
(2972,150,o),
(2972,137,o),
(2963,137,cs),
(2049,112,o),
(1144,110,o),
(218,140,c),
(205,140,o),
(196,136,o),
(184,128,cs),
(133,91,o),
(81,22,o),
(26,16,cs),
(-13,12,o),
(-3,-8,o),
(24,-8,cs)
);
}
);
width = 3198;
}
);
metricLeft = "=0";
metricRight = "=0";
},
{
glyphname = "kaf-ar.medi";
layers = (
{
anchors = (
{
name = entry;
pos = (2251,0);
},
{
name = exit;
}
);
backgroundImage = {
alpha = 80;
angle = -1.7;
imagePath = "images/kaf-ar.medi.jpg";
locked = 1;
pos = (-891,-1235);
scale = (20,20);
};
layerId = m01;
shapes = (
{
closed = 1;
nodes = (
(382,2,o),
(783,14,o),
(1185,10,cs),
(2251,0,l),
(2251,150,l),
(2227,197,o),
(2200,248,o),
(2180,292,cs),
(2171,311,o),
(2162,316,o),
(2147,316,cs),
(1690,312,o),
(961,289,o),
(277,311,cs),
(233,312,o),
(174,314,o),
(199,355,cs),
(229,405,o),
(259,441,o),
(290,488,cs),
(303,507,o),
(284,520,o),
(271,504,cs),
(191,406,o),
(71,247,o),
(26,211,cs),
(6,195,o),
(35,183,o),
(71,182,cs),
(444,169,o),
(834,167,o),
(1222,173,cs),
(1494,177,o),
(1762,177,o),
(2034,180,cs),
(2051,180,o),
(2050,154,o),
(2034,154,c),
(1350,153,o),
(664,118,o),
(-20,149,c),
(-20,0,l)
);
}
);
width = 2251;
}
);
metricLeft = "=-20@10";
metricRight = "=0";
},
{
glyphname = "kaf-ar.init";
layers = (
{
anchors = (
{
name = exit;
}
);
backgroundImage = {
alpha = 80;
angle = -0.3;
imagePath = "images/kaf-ar.init.jpg";
locked = 1;
pos = (-236,-476);
scale = (20,20);
};
layerId = m01;
shapes = (
{
closed = 1;
nodes = (
(266,1,o),
(881,5,o),
(1118,5,cs),
(1320,5,o),
(1546,3,o),
(1751,3,cs),
(1785,3,o),
(1834,8,o),
(1834,42,cs),
(1834,94,o),
(1820,206,o),
(1780,275,cs),
(1769,293,o),
(1763,299,o),
(1753,299,cs),
(1195,320,o),
(1069,247,o),
(293,294,cs),
(258,296,o),
(189,311,o),
(215,344,cs),
(261,410,o),
(304,466,o),
(348,533,cs),
(361,553,o),
(345,568,o),
(328,546,cs),
(224,414,o),
(132,308,o),
(26,173,cs),
(20,165,o),
(25,160,o),
(36,160,cs),
(81,160,o),
(163,158,o),
(209,158,cs),
(334,159,o),
(1402,156,o),
(1570,147,cs),
(1577,147,o),
(1577,133,o),
(1570,133,cs),
(1043,123,o),
(508,135,o),
(-20,132,c),
(-20,0,l)
);
}
);
width = 1834;
},
{
anchors = (
{
name = exit;
}
);
associatedMasterId = m01;
attr = {
coordinates = (
100,
0
);
};
backgroundImage = {
alpha = 80;
imagePath = "images/kaf-ar.init.x.jpg";
locked = 1;
pos = (-783,-451);
scale = (20,20);
};
layerId = "87B636CB-598E-4C8A-BDCD-2800221277DF";
name = "{100, 0} 3 Jul 22, 18:43";
shapes = (
{
closed = 1;
nodes = (
(127,2,o),
(251,2,o),
(379,3,cs),
(495,3,o),
(614,3,o),
(754,3,cs),
(788,3,o),
(837,8,o),
(837,42,cs),
(837,94,o),
(823,206,o),
(783,275,cs),
(772,293,o),
(761,313,o),
(751,313,cs),
(657,313,o),
(331,308,o),
(262,308,cs),
(207,308,o),
(153,311,o),
(179,344,cs),
(225,410,o),
(268,466,o),
(312,533,cs),
(325,553,o),
(319,568,o),
(302,546,cs),
(198,414,o),
(111,303,o),
(5,168,cs),
(-1,160,o),
(4,155,o),
(15,155,cs),
(60,155,o),
(137,158,o),
(183,158,cs),
(235,158,o),
(519,170,o),
(597,170,cs),
(604,170,o),
(604,153,o),
(597,152,cs),
(451,141,o),
(162,134,o),
(-20,132,c),
(-20,1,l)
);
}
);
width = 837;
}
);
metricLeft = "=-20";
metricRight = "=0";
},
{
glyphname = "lam-ar";
layers = (
{
anchors = (
{
name = damma;
pos = (94,-152);
},
{
name = fatha;
pos = (120,1157);
},
{
name = kasra;
pos = (99,-656);
}
);
backgroundImage = {
alpha = 80;
imagePath = "images/lam-ar.jpg";
locked = 1;
pos = (-526,-701);
scale = (20,20);
};
layerId = m01;
shapes = (
{
closed = 1;
nodes = (
(354,-543,o),
(369,-551,o),
(374,-514,cs),
(377,-491,o),
(377,-444,o),
(375,-410,cs),
(361,-206,o),
(355,7,o),
(352,215,cs),
(347,497,o),
(343,842,o),
(339,1118,cs),
(338,1186,o),
(328,1216,o),
(321,1241,cs),
(318,1253,o),
(311,1251,o),
(306,1241,cs),
(270,1165,o),
(233,1110,o),
(195,1082,cs),
(185,1075,o),
(182,1068,o),
(185,1059,cs),
(192,1039,o),
(199,1012,o),
(200,990,cs),
(225,484,o),
(231,18,o),
(225,-377,c),
(135,-380,o),
(50,-377,o),
(-20,-354,cs),
(-28,-351,o),
(-38,-347,o),
(-48,-359,cs),
(-78,-394,o),
(-183,-476,o),
(-261,-530,cs),
(-268,-535,o),
(-273,-548,o),
(-250,-548,cs),
(-76,-548,o),
(138,-561,o),
(272,-550,cs)
);
}
);
width = 376;
}
);
metricRight = "=0";
unicode = 1604;
},
{
glyphname = "lam-ar.fina";
layers = (
{
anchors = (
{
name = damma;
pos = (94,-152);
},
{
name = fatha;
pos = (120,1218);
},
{
name = kasra;
pos = (155,-637);
}
);
backgroundImage = {
alpha = 80;
angle = -0.6;
imagePath = "images/lam-ar.fina.jpg";
locked = 1;
pos = (-441,-680);
scale = (20,20);
};
layerId = m01;
shapes = (
{
closed = 1;
nodes = (
(105,-531,o),
(238,-537,o),
(349,-528,cs),
(382,-525,o),
(394,-493,o),
(390,-452,cs),
(373,-282,o),
(377,-111,o),
(371,59,c),
(347,0,l),
(385,0,l),
(385,150,l),
(365,185,o),
(356,223,o),
(356,260,cs),
(356,578,o),
(349,896,o),
(348,1214,cs),
(348,1245,o),
(348,1277,o),
(345,1308,cs),
(343,1332,o),
(328,1335,o),
(320,1314,cs),
(285,1218,o),
(239,1182,o),
(211,1141,cs),
(203,1130,o),
(202,1119,o),
(205,1111,cs),
(213,1086,o),
(221,1050,o),
(221,987,cs),
(221,525,o),
(234,109,o),
(232,-354,c),
(178,-366,o),
(94,-356,o),
(-13,-330,cs),
(-20,-328,o),
(-29,-328,o),
(-35,-341,cs),
(-52,-379,o),
(-119,-436,o),
(-170,-471,cs),
(-189,-484,o),
(-191,-496,o),
(-168,-503,cs),
(-116,-519,o),
(-33,-533,o),
(32,-532,cs)
);
}
);
width = 373;
}
);
metricRight = "=0@0";
},
{
glyphname = "lam-ar.medi";
layers = (
{
anchors = (
{
name = damma;
pos = (-23,270);
},
{
name = entry;
pos = (153,0);
},
{
name = exit;
},
{
name = fatha;
pos = (-81,1160);
},
{
name = kasra;
pos = (120,-81);
}
);
backgroundImage = {
alpha = 80;
imagePath = "images/lam-ar.medi.jpg";
locked = 1;
pos = (-942,-363);
scale = (20,20);
};
layerId = m01;
shapes = (
{
closed = 1;
nodes = (
(92,0,l),
(163,0,l),
(163,150,l),
(143,185,o),
(137,223,o),
(137,260,cs),
(137,552,o),
(132,913,o),
(127,1256,cs),
(127,1267,o),
(121,1268,o),
(117,1261,cs),
(88,1209,o),
(44,1127,o),
(8,1096,cs),
(-10,1080,o),
(-6,1073,o),
(-3,1056,cs),
(13,971,o),
(15,864,o),
(16,746,cs),
(19,83,l),
(87,150,l),
(-20,150,l),
(-20,0,l)
);
}
);
width = 153;
}
);
metricLeft = "=-20";
metricRight = "=-10";
},
{
glyphname = "lam-ar.medi.ain";
layers = (
{
anchors = (
{
name = damma;
pos = (-37,214);
},
{
name = entry;
pos = (352,0);
},
{
name = exit;
},
{
name = fatha;
pos = (-107,1179);
},
{
name = kasra;
pos = (105,-104);
}
);
layerId = m01;
shapes = (
{
closed = 1;
nodes = (
(374,0,l),
(374,150,l),
(232,150,l),
(353,137,l),
(263,196,o),
(129,309,o),
(100,357,c),
(125,276,l),
(137,538,o),
(153,904,o),
(116,1264,cs),
(115,1272,o),
(112,1275,o),
(108,1268,cs),
(75,1208,o),
(32,1155,o),
(-11,1114,cs),
(-19,1107,o),
(-21,1103,o),
(-18,1091,cs),
(11,985,o),
(20,743,o),
(20,576,cs),
(20,402,o),
(8,230,o),
(0,56,cs),
(-2,30,o),
(20,-2,o),
(94,0,c)
);
}
);
width = 352;
}
);
metricLeft = "=0@56";
},
{
glyphname = "lam-ar.medi.kashida";
layers = (
{
anchors = (
{
name = damma;
pos = (-23,270);
},
{
name = entry;
pos = (258,0);
},
{
name = exit;
},
{
name = fatha;
pos = (-57,1177);
},
{
name = kasra;
pos = (120,-81);
}
);
backgroundImage = {
alpha = 80;
imagePath = "images/lam-ar.medi.jpg";
pos = (-942,-363);
scale = (20,20);
};
layerId = m01;
shapes = (
{
closed = 1;
nodes = (
(92,0,l),
(258,0,l),
(258,130,l),
(170,130,o),
(134,148,o),
(137,260,cs),
(137,552,o),
(132,913,o),
(127,1256,cs),
(127,1267,o),
(121,1268,o),
(117,1261,cs),
(88,1209,o),
(44,1127,o),
(8,1096,cs),
(-10,1080,o),
(-6,1073,o),
(-3,1056,cs),
(13,971,o),
(15,864,o),
(16,746,cs),
(19,83,l),
(87,150,l),
(-20,150,l),
(-20,0,l)
);
}
);
width = 258;
}
);
metricLeft = "=-20";
},
{
glyphname = "lam-ar.init";
layers = (
{
anchors = (
{
name = damma;
pos = (7,270);
},
{
name = exit;
},
{
name = fatha;
pos = (-28,1141);
},
{
name = kasra;
pos = (100,-105);
}
);
backgroundImage = {
alpha = 80;
imagePath = "images/lam-ar.init.jpg";
locked = 1;
pos = (-495,-206);
scale = (20,20);
};
layerId = m01;
shapes = (
{
closed = 1;
nodes = (
(112,0,ls),
(130,0,o),
(158,12,o),
(158,30,cs),
(156,172,o),
(145,392,o),
(148,572,cs),
(152,788,o),
(162,1007,o),
(145,1223,cs),
(144,1234,o),
(136,1235,o),
(130,1224,cs),
(86,1141,o),
(68,1101,o),
(24,1062,cs),
(10,1050,o),
(13,1039,o),
(16,1026,cs),
(30,960,o),
(34,902,o),
(34,820,cs),
(34,621,o),
(26,401,o),
(19,135,c),
(69,150,l),
(-20,150,l),
(-20,0,l)
);
}
);
width = 178;
}
);
metricLeft = "=-20";
},
{
glyphname = "meem-ar";
kernRight = meem;
layers = (
{
anchors = (
{
name = kasra;
pos = (686,-114);
}
);
layerId = m01;
shapes = (
{
closed = 1;
nodes = (
(894,-22,o),
(922,22,o),
(922,142,cs),
(922,304,o),
(820,500,o),
(676,500,cs),
(528,500,o),
(386,318,o),
(386,128,cs),
(386,2,o),
(538,-22,o),
(660,-22,cs)
);
},
{
closed = 1;
nodes = (
(444,130,l),
(363,126,o),
(276,131,o),
(194,148,cs),
(183,150,o),
(176,148,o),
(171,143,cs),
(123,95,o),
(68,57,o),
(8,21,cs),
(-2,15,o),
(-3,7,o),
(9,6,cs),
(216,-7,o),
(458,-22,o),
(660,-22,c)
);
},
{
closed = 1;
nodes = (
(660,234,o),
(654,240,o),
(654,247,cs),
(654,254,o),
(660,260,o),
(667,260,cs),
(674,260,o),
(680,254,o),
(680,247,cs),
(680,240,o),
(674,234,o),
(667,234,cs)
);
}
);
width = 922;
},
{
associatedMasterId = m01;
layerId = "E0CE7A6A-A561-47FC-A655-1D4A4B2AE5B5";
name = "26 Apr 21, 22:21";
shapes = (
{
closed = 1;
nodes = (
(914,-24,o),
(956,10,o),
(956,128,cs),
(956,290,o),
(850,486,o),
(708,486,cs),
(564,486,o),
(442,324,o),
(442,114,cs),
(442,8,o),
(530,-24,o),
(708,-24,cs)
);
},
{
closed = 1;
nodes = (
(706,210,o),
(702,214,o),
(702,224,cs),
(702,232,o),
(706,236,o),
(716,236,cs),
(724,236,o),
(728,232,o),
(728,224,cs),
(728,214,o),
(724,210,o),
(716,210,cs)
);
}
);
width = 950;
},
{
associatedMasterId = m01;
layerId = "68EBDF7B-15A5-46E4-9C57-C98FC85622D4";
name = "26 Apr 21, 22:20";
shapes = (
{
closed = 1;
nodes = (
(928,-22,o),
(956,24,o),
(956,142,cs),
(956,304,o),
(854,500,o),
(710,500,cs),
(560,500,o),
(420,318,o),
(420,128,c),
(352,128,o),
(282,134,o),
(214,152,c),
(158,94,o),
(92,50,o),
(20,8,c),
(236,-6,o),
(490,-22,o),
(702,-22,cs)
);
},
{
closed = 1;
nodes = (
(692,234,o),
(688,238,o),
(688,248,cs),
(688,256,o),
(692,260,o),
(702,260,cs),
(710,260,o),
(714,256,o),
(714,248,cs),
(714,238,o),
(710,234,o),
(702,234,cs)
);
}
);
width = 950;
}
);
metricLeft = "=0";
metricRight = "=0";
unicode = 1605;
},
{
glyphname = "meem-ar.fina";
layers = (
{
anchors = (
{
name = kasra;
pos = (691,-104);
}
);
layerId = m01;
shapes = (
{
closed = 1;
nodes = (
(900,-1,o),
(928,22,o),
(928,142,cs),
(928,304,o),
(826,500,o),
(682,500,cs),
(534,500,o),
(392,318,o),
(392,128,cs),
(392,2,o),
(544,-1,o),
(666,-1,cs)
);
},
{
closed = 1;
nodes = (
(445,143,l),
(363,136,o),
(277,136,o),
(192,153,cs),
(182,155,o),
(176,153,o),
(173,149,cs),
(125,97,o),
(69,56,o),
(8,17,cs),
(0,12,o),
(-5,5,o),
(8,5,cs),
(203,-1,o),
(723,-8,o),
(928,-1,c)
);
},
{
closed = 1;
nodes = (
(666,234,o),
(660,240,o),
(660,247,cs),
(660,254,o),
(666,260,o),
(673,260,cs),
(680,260,o),
(686,254,o),
(686,247,cs),
(686,240,o),
(680,234,o),
(673,234,cs)
);
},
{
closed = 1;
nodes = (
(928,150,l),
(633,150,l),
(633,1,l),
(928,0,l)
);
}
);
width = 928;
},
{
associatedMasterId = m01;
layerId = "E0CE7A6A-A561-47FC-A655-1D4A4B2AE5B5";
name = "26 Apr 21, 22:21";
shapes = (
{
closed = 1;
nodes = (
(914,-24,o),
(956,10,o),
(956,128,cs),
(956,290,o),
(850,486,o),
(708,486,cs),
(564,486,o),
(442,324,o),
(442,114,cs),
(442,8,o),
(530,-24,o),
(708,-24,cs)
);
},
{
closed = 1;
nodes = (
(706,210,o),
(702,214,o),
(702,224,cs),
(702,232,o),
(706,236,o),
(716,236,cs),
(724,236,o),
(728,232,o),
(728,224,cs),
(728,214,o),
(724,210,o),
(716,210,cs)
);
}
);
width = 950;
},
{
associatedMasterId = m01;
layerId = "68EBDF7B-15A5-46E4-9C57-C98FC85622D4";
name = "26 Apr 21, 22:20";
shapes = (
{
closed = 1;
nodes = (
(928,-22,o),
(956,24,o),
(956,142,cs),
(956,304,o),
(854,500,o),
(710,500,cs),
(560,500,o),
(420,318,o),
(420,128,c),
(352,128,o),
(282,134,o),
(214,152,c),
(158,94,o),
(92,50,o),
(20,8,c),
(236,-6,o),
(490,-22,o),
(702,-22,cs)
);
},
{
closed = 1;
nodes = (
(692,234,o),
(688,238,o),
(688,248,cs),
(688,256,o),
(692,260,o),
(702,260,cs),
(710,260,o),
(714,256,o),
(714,248,cs),
(714,238,o),
(710,234,o),
(702,234,cs)
);
}
);
width = 950;
}
);
metricLeft = "=0";
metricRight = "=0";
},
{
glyphname = "meem-ar.medi";
layers = (
{
anchors = (
{
name = entry;
pos = (539,0);
},
{
name = exit;
},
{
name = kasra;
pos = (310,-134);
}
);
backgroundImage = {
alpha = 80;
angle = -2.5;
imagePath = "images/meem-ar.medi.jpg";
locked = 1;
pos = (-335,-276);
scale = (20,20);
};
layerId = m01;
shapes = (
{
closed = 1;
nodes = (
(424,-18,o),
(519,-4,o),
(519,123,cs),
(519,246,o),
(390,504,o),
(251,504,cs),
(130,504,o),
(0,333,o),
(0,112,cs),
(0,15,o),
(91,-17,o),
(281,-18,cs)
);
},
{
closed = 1;
nodes = (
(539,150,l),
(-70,150,l),
(-70,1,l),
(539,-1,l)
);
},
{
closed = 1;
nodes = (
(274,213,o),
(268,219,o),
(268,226,cs),
(268,233,o),
(274,239,o),
(281,239,cs),
(288,239,o),
(294,233,o),
(294,226,cs),
(294,219,o),
(288,213,o),
(281,213,cs)
);
}
);
width = 539;
}
);
},
{
glyphname = "meem-ar.medi.alt";
kernRight = meem;
layers = (
{
anchors = (
{
name = entry;
pos = (518,0);
},
{
name = exit;
},
{
name = kasra;
pos = (302,-134);
}
);
background = {
backgroundImage = {
imagePath = "1/image-0056.jpg";
locked = 1;
pos = (-5495,-4420);
scale = (10,10);
};
};
layerId = m01;
shapes = (
{
closed = 1;
nodes = (
(472,-26,o),
(518,8,o),
(518,126,cs),
(518,288,o),
(408,484,o),
(266,484,cs),
(122,484,o),
(0,322,o),
(0,112,cs),
(0,6,o),
(88,-26,o),
(266,-26,cs)
);
},
{
closed = 1;
nodes = (
(266,208,o),
(260,214,o),
(260,221,cs),
(260,228,o),
(266,234,o),
(273,234,cs),
(280,234,o),
(286,228,o),
(286,221,cs),
(286,214,o),
(280,208,o),
(273,208,cs)
);
}
);
width = 518;
}
);
metricLeft = "=0";
metricRight = "=0";
},
{
glyphname = "meem-ar.init";
kernRight = meem;
layers = (
{
anchors = (
{
name = exit;
},
{
name = fatha;
pos = (328,633);
},
{
name = kasra;
pos = (434,-94);
}
);
backgroundImage = {
alpha = 80;
imagePath = "images/heh-ar.fina.jpg";
locked = 1;
pos = (-3740,-247);
scale = (20,20);
};
layerId = m01;
shapes = (
{
closed = 1;
nodes = (
(551,-7,o),
(555,27,o),
(555,110,cs),
(555,300,o),
(448,524,o),
(307,524,cs),
(146,524,o),
(33,333,o),
(30,172,cs),
(28,49,o),
(139,-7,o),
(341,-7,cs)
);
},
{
closed = 1;
nodes = (
(308,248,o),
(302,254,o),
(302,261,cs),
(302,268,o),
(308,274,o),
(315,274,cs),
(322,274,o),
(328,268,o),
(328,261,cs),
(328,254,o),
(322,248,o),
(315,248,cs)
);
},
{
closed = 1;
nodes = (
(-20,0,l),
(100,0,o),
(221,-6,o),
(341,-7,c),
(341,150,l),
(-20,150,l)
);
}
);
width = 555;
}
);
metricLeft = "=-20";
metricRight = "=0";
},
{
glyphname = "meem-ar.init.alt";
kernRight = meem;
layers = (
{
anchors = (
{
name = exit;
},
{
name = kasra;
pos = (363,-164);
}
);
backgroundImage = {
alpha = 80;
imagePath = "images/alef-ar.fina.meem.jpg";
locked = 1;
pos = (-842,-282);
scale = (20,20);
};
layerId = m01;
shapes = (
{
closed = 1;
nodes = (
(524,-4,o),
(554,28,o),
(554,146,cs),
(554,308,o),
(450,515,o),
(278,515,cs),
(142,515,o),
(-14,335,o),
(12,185,cs),
(31,77,o),
(123,0,o),
(315,-2,cs)
);
},
{
closed = 1;
nodes = (
(297,232,o),
(291,238,o),
(291,245,cs),
(291,252,o),
(297,258,o),
(304,258,cs),
(311,258,o),
(317,252,o),
(317,245,cs),
(317,238,o),
(311,232,o),
(304,232,cs)
);
},
{
closed = 1;
nodes = (
(12,176,o),
(-5,182,o),
(-7,198,c),
(-5,67,l),
(18,113,o),
(43,109,o),
(56,90,c),
(10,207,l)
);
}
);
width = 554;
}
);
metricRight = "=0";
},
{
glyphname = "noonghunna-ar";
layers = (
{
anchors = (
{
name = damma;
pos = (186,-326);
},
{
name = fatha;
pos = (114,342);
},
{
name = kasra;
pos = (538,-413);
},
{
name = top;
pos = (58,210);
}
);
backgroundImage = {
alpha = 100;
imagePath = "1/image-0056.jpg";
pos = (-11099,-3240);
scale = (20,20);
};
layerId = m01;
shapes = (
{
closed = 1;
nodes = (
(398,-882,o),
(410,-862,o),
(410,-838,cs),
(410,-592,o),
(422,-346,o),
(418,-100,cs),
(414,138,o),
(328,256,o),
(138,316,c),
(0,136,l),
(104,120,o),
(220,64,o),
(262,-44,cs),
(318,-190,o),
(302,-474,o),
(286,-724,c),
(198,-732,o),
(102,-720,o),
(20,-692,c),
(-18,-758,o),
(-66,-820,o),
(-126,-866,c),
(28,-908,o),
(218,-908,o),
(370,-886,cs)
);
}
);
width = 419;
}
);
metricLeft = "=0@136";
metricRight = "=0";
unicode = 1722;
},
{
glyphname = "noonghunna-ar.fina";
layers = (
{
anchors = (
{
name = damma;
pos = (186,-326);
},
{
name = fatha;
pos = (114,342);
},
{
name = kasra;
pos = (538,-413);
},
{
name = top;
pos = (58,210);
}
);
layerId = m01;
shapes = (
{
closed = 1;
nodes = (
(419,0,l),
(419,150,l),
(327,150,l),
(327,0,l)
);
},
{
ref = "noonghunna-ar";
}
);
width = 419;
}
);
metricLeft = "=noonghunna-ar";
},
{
glyphname = "heh-ar";
layers = (
{
anchors = (
{
name = damma;
pos = (-90,140);
},
{
name = fatha;
pos = (211,783);
},
{
name = kasra;
pos = (284,-94);
}
);
backgroundImage = {
alpha = 80;
imagePath = "images/heh-ar.jpg";
locked = 1;
pos = (-196,-291);
scale = (20,20);
};
layerId = m01;
shapes = (
{
closed = 1;
nodes = (
(423,9,o),
(471,8,o),
(478,58,cs),
(493,165,o),
(467,556,o),
(436,764,cs),
(433,783,o),
(425,770,o),
(423,764,cs),
(407,713,o),
(359,637,o),
(315,585,cs),
(310,579,o),
(308,571,o),
(315,564,cs),
(330,547,o),
(322,464,o),
(328,411,c),
(385,523,l),
(211,514,o),
(0,392,o),
(0,204,cs),
(0,-6,o),
(243,-6,o),
(388,6,cs)
);
},
{
closed = 1;
nodes = (
(284,257,o),
(277,264,o),
(277,272,cs),
(277,280,o),
(284,287,o),
(292,287,cs),
(300,287,o),
(307,280,o),
(307,272,cs),
(307,264,o),
(300,257,o),
(292,257,cs)
);
}
);
width = 482;
}
);
metricLeft = "=0";
metricRight = "=0";
unicode = 1607;
},
{
glyphname = "heh-ar.fina";
layers = (
{
anchors = (
{
name = damma;
pos = (-90,140);
},
{
name = fatha;
pos = (211,725);
},
{
name = kasra;
pos = (129,-66);
}
);
backgroundImage = {
alpha = 80;
angle = 0.1;
imagePath = "images/heh-ar.fina.jpg";
locked = 1;
pos = (-62,-256);
scale = (20,20);
};
layerId = m01;
shapes = (
{
closed = 1;
nodes = (
(486,150,l),
(483,150,l),
(491,455,o),
(483,613,o),
(474,758,cs),
(473,777,o),
(461,777,o),
(453,761,cs),
(430,715,o),
(392,656,o),
(344,613,cs),
(338,608,o),
(338,599,o),
(338,595,c),
(343,545,o),
(342,493,o),
(337,439,c),
(386,540,l),
(227,508,o),
(0,419,o),
(0,202,cs),
(0,48,o),
(130,12,o),
(261,5,cs),
(336,0,o),
(408,1,o),
(486,0,c)
);
},
{
closed = 1;
nodes = (
(274,285,o),
(267,292,o),
(267,300,cs),
(267,308,o),
(274,315,o),
(282,315,cs),
(290,315,o),
(297,308,o),
(297,300,cs),
(297,292,o),
(290,285,o),
(282,285,cs)
);
}
);
width = 486;
}
);
metricLeft = "=0";
metricRight = "=0";
},
{
glyphname = "heh-ar.medi";
layers = (
{
anchors = (
{
name = entry;
pos = (442,0);
},
{
name = exit;
},
{
name = fatha;
pos = (161,665);
},
{
name = kasra;
pos = (272,-125);
}
);
backgroundImage = {
alpha = 80;
imagePath = "images/heh-ar.medi.jpg";
locked = 1;
pos = (-379,-248);
scale = (20,20);
};
layerId = m01;
shapes = (
{
closed = 1;
nodes = (
(318,-27,o),
(388,-22,o),
(426,4,cs),
(442,16,o),
(459,34,o),
(455,53,cs),
(431,153,o),
(433,533,o),
(375,749,cs),
(370,768,o),
(354,762,o),
(354,744,cs),
(354,695,o),
(291,607,o),
(254,574,cs),
(248,568,o),
(247,562,o),
(250,556,cs),
(260,535,o),
(268,511,o),
(271,490,c),
(281,543,l),
(126,447,o),
(-4,339,o),
(22,143,cs),
(32,72,o),
(54,-33,o),
(273,-28,cs)
);
},
{
closed = 1;
nodes = (
(478,0,l),
(478,150,l),
(-20,150,l),
(-20,0,l)
);
},
{
closed = 1;
nodes = (
(291,173,o),
(284,180,o),
(284,188,cs),
(284,196,o),
(291,203,o),
(299,203,cs),
(307,203,o),
(314,196,o),
(314,188,cs),
(314,180,o),
(307,173,o),
(299,173,cs)
);
},
{
closed = 1;
nodes = (
(279,358,o),
(272,365,o),
(272,373,cs),
(272,381,o),
(279,388,o),
(287,388,cs),
(295,388,o),
(302,381,o),
(302,373,cs),
(302,365,o),
(295,358,o),
(287,358,cs)
);
}
);
width = 442;
}
);
metricLeft = "=-20";
metricRight = "=0@151";
},
{
glyphname = "heh-ar.medi.seen";
layers = (
{
anchors = (
{
name = entry;
pos = (485,0);
},
{
name = exit;
},
{
name = fatha;
pos = (159,618);
},
{
name = kasra;
pos = (305,-141);
}
);
backgroundImage = {
alpha = 80;
angle = -0.8;
imagePath = "images/seen-ar.init.jpg";
locked = 1;
pos = (-1280,-252);
scale = (20,20);
};
layerId = m01;
shapes = (
{
closed = 1;
nodes = (
(375,-20,o),
(443,-20,o),
(481,6,cs),
(497,18,o),
(512,34,o),
(508,53,cs),
(484,153,o),
(442,319,o),
(375,757,cs),
(372,776,o),
(354,770,o),
(354,752,cs),
(354,703,o),
(291,617,o),
(254,568,cs),
(250,562,o),
(249,557,o),
(250,550,cs),
(260,486,l),
(288,560,l),
(140,468,o),
(14,350,o),
(20,214,cs),
(27,77,o),
(182,-20,o),
(330,-20,cs)
);
},
{
closed = 1;
nodes = (
(485,0,l),
(485,150,l),
(-20,150,l),
(-20,0,l)
);
},
{
closed = 1;
nodes = (
(285,214,o),
(278,221,o),
(278,229,cs),
(278,237,o),
(285,244,o),
(293,244,cs),
(301,244,o),
(308,237,o),
(308,229,cs),
(308,221,o),
(301,214,o),
(293,214,cs)
);
},
{
closed = 1;
nodes = (
(261,375,o),
(254,382,o),
(254,390,cs),
(254,398,o),
(261,405,o),
(269,405,cs),
(277,405,o),
(284,398,o),
(284,390,cs),
(284,382,o),
(277,375,o),
(269,375,cs)
);
}
);
width = 485;
}
);
metricLeft = "=-20";
metricRight = "=0@150";
},
{
glyphname = "heh-ar.init";
layers = (
{
anchors = (
{
name = exit;
}
);
backgroundImage = {
alpha = 80;
angle = 1.5;
imagePath = "images/heh-ar.init.jpg";
locked = 1;
pos = (-2500,-575);
scale = (20,20);
};
layerId = m01;
shapes = (
{
closed = 1;
nodes = (
(117,4,o),
(274,3,o),
(410,3,cs),
(469,3,o),
(504,28,o),
(505,59,cs),
(511,263,o),
(497,496,o),
(474,703,cs),
(470,744,o),
(459,762,o),
(453,771,cs),
(440,789,o),
(430,786,o),
(430,763,cs),
(430,746,o),
(371,662,o),
(326,613,cs),
(321,607,o),
(318,601,o),
(319,596,cs),
(320,588,o),
(321,579,o),
(321,571,c),
(232,548,o),
(121,483,o),
(65,396,cs),
(21,328,o),
(6,223,o),
(43,151,c),
(22,150,o),
(1,150,o),
(-20,150,c),
(-19,3,l)
);
},
{
closed = 1;
nodes = (
(309,395,o),
(316,402,o),
(324,402,cs),
(332,402,o),
(339,395,o),
(339,387,cs),
(339,379,o),
(332,372,o),
(324,372,cs),
(316,372,o),
(309,379,o),
(309,387,cs)
);
},
{
closed = 1;
nodes = (
(325,228,o),
(332,235,o),
(340,235,cs),
(348,235,o),
(355,228,o),
(355,220,cs),
(355,212,o),
(348,205,o),
(340,205,cs),
(332,205,o),
(325,212,o),
(325,220,cs)
);
}
);
width = 506;
}
);
metricLeft = "=-20";
metricRight = "=0";
},
{
glyphname = "waw-ar";
layers = (
{
anchors = (
{
name = fatha;
pos = (390,729);
},
{
name = top.hamza;
pos = (99,427);
}
);
layerId = m01;
shapes = (
{
closed = 1;
nodes = (
(738,22,o),
(740,42,o),
(748,68,cs),
(788,194,o),
(678,610,o),
(456,610,cs),
(284,610,o),
(180,406,o),
(212,266,cs),
(244,130,o),
(444,132,o),
(584,146,c),
(588,138,o),
(588,136,o),
(588,128,c),
(438,108,o),
(282,110,o),
(190,192,c),
(142,118,o),
(84,86,o),
(20,52,c),
(154,-42,o),
(622,4,o),
(670,12,cs)
);
},
{
closed = 1;
nodes = (
(460,356,o),
(454,362,o),
(454,369,cs),
(454,376,o),
(460,382,o),
(467,382,cs),
(474,382,o),
(480,376,o),
(480,369,cs),
(480,362,o),
(474,356,o),
(467,356,cs)
);
}
);
width = 776;
}
);
unicode = 1608;
},
{
glyphname = "waw-ar.fina";
layers = (
{
anchors = (
{
name = top.hamza;
pos = (123,313);
}
);
layerId = m01;
shapes = (
{
closed = 1;
nodes = (
(504,-150,o),
(616,-140,o),
(686,-106,cs),
(730,-84,o),
(756,-68,o),
(762,38,cs),
(774,226,o),
(608,482,o),
(462,482,cs),
(306,482,o),
(190,278,o),
(222,138,cs),
(254,2,o),
(458,-6,o),
(598,8,c),
(602,0,o),
(602,-2,o),
(602,-10,c),
(452,-30,o),
(298,-18,o),
(206,64,c),
(148,-10,o),
(84,-30,o),
(20,-58,c),
(92,-110,o),
(266,-144,o),
(416,-148,cs)
);
},
{
closed = 1;
nodes = (
(452,230,o),
(446,236,o),
(446,243,cs),
(446,250,o),
(452,256,o),
(459,256,cs),
(466,256,o),
(472,250,o),
(472,243,cs),
(472,236,o),
(466,230,o),
(459,230,cs)
);
}
);
width = 756;
}
);
},
{
glyphname = "waw-ar.fina.alt";
layers = (
{
anchors = (
{
name = fatha;
pos = (424,600);
}
);
backgroundImage = {
alpha = 100;
imagePath = "1/image-0056.jpg";
pos = (-9512,-5199);
scale = (20,20);
};
layerId = m01;
shapes = (
{
closed = 1;
nodes = (
(718,-146,o),
(784,-62,o),
(742,30,cs),
(702,118,o),
(672,212,o),
(618,300,cs),
(578,364,o),
(534,436,o),
(436,436,cs),
(286,436,o),
(174,250,o),
(206,110,cs),
(238,-26,o),
(434,-50,o),
(574,-36,c),
(578,-44,o),
(578,-46,o),
(578,-54,c),
(428,-74,o),
(256,-44,o),
(164,38,c),
(136,-32,o),
(74,-72,o),
(10,-86,c),
(204,-226,o),
(580,-178,o),
(660,-160,cs)
);
},
{
closed = 1;
nodes = (
(450,178,o),
(444,184,o),
(444,191,cs),
(444,198,o),
(450,204,o),
(457,204,cs),
(464,204,o),
(470,198,o),
(470,191,cs),
(470,184,o),
(464,178,o),
(457,178,cs)
);
},
{
closed = 1;
nodes = (
(813,0,l),
(808,123,l),
(719,114,o),
(685,169,o),
(663,215,c),
(668,0,l)
);
}
);
width = 702;
}
);
},
{
glyphname = "alefMaksura-ar";
layers = (
{
anchors = (
{
name = bottom;
pos = (629,-402);
}
);
backgroundImage = {
alpha = 80;
imagePath = "images/alefMaksura-ar.jpg";
locked = 1;
pos = (-1089,-1067);
scale = (20,20);
};
layerId = m01;
shapes = (
{
closed = 1;
nodes = (
(307,-871,o),
(370,-868,o),
(435,-860,cs),
(465,-857,o),
(485,-845,o),
(486,-812,cs),
(491,-545,o),
(500,-243,o),
(494,14,cs),
(493,38,o),
(491,63,o),
(465,60,cs),
(383,49,o),
(247,48,o),
(183,124,cs),
(177,131,o),
(186,143,o),
(195,134,cs),
(237,91,o),
(331,60,o),
(387,88,cs),
(421,105,o),
(463,147,o),
(478,249,c),
(361,226,o),
(336,320,o),
(233,320,cs),
(98,320,o),
(20,182,o),
(20,70,cs),
(20,-117,o),
(220,-122,o),
(347,-110,cs),
(370,-108,o),
(382,-134,o),
(382,-189,cs),
(382,-370,o),
(382,-525,o),
(372,-703,c),
(299,-709,o),
(215,-707,o),
(138,-689,c),
(95,-743,o),
(40,-810,o),
(-5,-848,c),
(72,-863,o),
(156,-871,o),
(247,-871,cs)
);
}
);
width = 496;
}
);
metricLeft = "=20@70";
unicode = 1609;
},
{
glyphname = "alefMaksura-ar.fina";
layers = (
{
anchors = (
{
name = bottom;
pos = (466,-624);
}
);
backgroundImage = {
alpha = 80;
angle = 1.1;
imagePath = "images/alefMaksura-ar.fina.jpg";
locked = 1;
pos = (-278,-844);
scale = (20,20);
};
layerId = m01;
shapes = (
{
closed = 1;
nodes = (
(439,-636,o),
(479,-633,o),
(483,-599,cs),
(499,-462,o),
(499,-227,o),
(496,-51,cs),
(496,-31,o),
(489,-26,o),
(477,-26,cs),
(340,-26,o),
(205,28,o),
(175,142,cs),
(170,160,o),
(191,160,o),
(194,150,cs),
(246,0,o),
(407,0,o),
(514,0,c),
(514,150,l),
(412,157,o),
(404,356,o),
(231,356,cs),
(133,356,o),
(0,196,o),
(0,60,cs),
(0,-44,o),
(64,-131,o),
(158,-169,cs),
(217,-193,o),
(277,-202,o),
(324,-202,cs),
(341,-202,o),
(352,-201,o),
(354,-221,cs),
(359,-269,o),
(365,-349,o),
(365,-459,cs),
(365,-463,o),
(363,-470,o),
(354,-471,cs),
(299,-475,o),
(236,-473,o),
(159,-455,cs),
(148,-453,o),
(138,-448,o),
(123,-463,cs),
(97,-491,o),
(43,-548,o),
(-4,-597,cs),
(-14,-607,o),
(-7,-616,o),
(11,-624,cs),
(63,-646,o),
(209,-643,o),
(404,-637,cs)
);
}
);
width = 514;
}
);
metricLeft = "=0@60";
metricRight = "=0";
},
{
glyphname = "yehbarree-ar.fina";
layers = (
{
anchors = (
{
name = entry;
pos = (439,131);
}
);
backgroundImage = {
alpha = 80;
imagePath = "images/yehbarree-ar.fina.jpg";
locked = 1;
pos = (-418,-293);
scale = (20,20);
};
layerId = m01;
shapes = (
{
closed = 1;
nodes = (
(397,343,o),
(324,437,o),
(239,437,cs),
(119,437,o),
(0,272,o),
(0,148,cs),
(0,-21,o),
(259,-12,o),
(460,-20,cs),
(942,-39,o),
(1503,-45,o),
(1905,-32,cs),
(1919,-32,o),
(1938,-27,o),
(1952,-12,cs),
(1982,20,o),
(1992,48,o),
(2038,48,cs),
(2058,48,o),
(2058,76,o),
(2036,75,cs),
(1816,64,o),
(1478,72,o),
(1196,70,cs),
(903,68,o),
(496,96,o),
(390,112,cs),
(219,137,o),
(185,182,o),
(163,216,cs),
(157,226,o),
(171,235,o),
(178,226,cs),
(218,175,o),
(276,141,o),
(419,131,c),
(477,131,l),
(477,274,l)
);
}
);
width = 2053;
}
);
},
{
glyphname = "kashida-ar.real";
layers = (
{
layerId = m01;
shapes = (
{
closed = 1;
nodes = (
(220,0,l),
(220,150,l),
(0,150,l),
(0,0,l)
);
}
);
width = 200;
}
);
metricLeft = "=0";
metricRight = "=-20";
},
{
export = 0;
glyphname = "behDotless-ar.1";
layers = (
{
anchors = (
{
name = bottom;
pos = (2424,47);
},
{
name = damma;
pos = (-57,68);
},
{
name = fatha;
pos = (2228,500);
},
{
name = kasra;
pos = (2156,-82);
},
{
name = top;
pos = (2134,313);
}
);
backgroundImage = {
alpha = 80;
imagePath = "images/behDotless-ar.1.jpg";
locked = 1;
pos = (-115,-342);
scale = (20,20);
};
layerId = m01;
shapes = (
{
closed = 1;
nodes = (
(2247,409,o),
(2242,409,o),
(2236,404,cs),
(2172,344,o),
(2078,247,o),
(2039,198,cs),
(2035,192,o),
(2036,189,o),
(2041,185,cs),
(2083,156,o),
(2140,144,o),
(2213,144,c),
(2218,141,o),
(2223,125,o),
(2223,118,c),
(1644,103,o),
(877,121,o),
(322,134,cs),
(305,134,o),
(220,135,o),
(152,162,cs),
(147,164,o),
(143,163,o),
(141,160,cs),
(103,107,o),
(49,58,o),
(5,32,cs),
(-1,29,o),
(-3,24,o),
(6,23,cs),
(334,0,o),
(823,2,o),
(1282,-2,cs),
(1580,-5,o),
(1867,-6,o),
(2100,-11,cs),
(2199,-13,o),
(2294,-14,o),
(2376,-14,cs),
(2434,-14,o),
(2464,13,o),
(2464,45,cs),
(2464,177,o),
(2371,307,o),
(2254,404,cs)
);
}
);
width = 2464;
}
);
metricLeft = "=0";
metricRight = "=0";
},
{
export = 0;
glyphname = "hah-ar.1";
layers = (
{
anchors = (
{
name = center;
pos = (1213,-112);
},
{
name = damma;
pos = (-133,42);
},
{
name = fatha;
pos = (591,530);
},
{
name = kasra;
pos = (1475,-144);
},
{
name = top;
pos = (465,377);
}
);
backgroundImage = {
alpha = 80;
imagePath = "images/hah-ar.1.jpg";
locked = 1;
pos = (-557,-407);
scale = (20,20);
};
layerId = m01;
shapes = (
{
closed = 1;
nodes = (
(1745,91,o),
(1696,59,o),
(1639,31,cs),
(1611,18,o),
(1570,10,o),
(1542,9,cs),
(1218,-4,o),
(663,-10,o),
(551,-5,cs),
(374,3,o),
(244,26,o),
(212,135,cs),
(207,152,o),
(181,145,o),
(186,127,cs),
(212,25,o),
(327,-14,o),
(437,-21,cs),
(638,-34,o),
(902,-24,o),
(1218,-23,c),
(1165,-51,o),
(1054,-118,o),
(917,-134,cs),
(730,-156,o),
(621,-165,o),
(409,-168,cs),
(161,-171,o),
(64,-140,o),
(16,-35,cs),
(-39,86,o),
(51,260,o),
(187,313,cs),
(243,335,o),
(305,333,o),
(343,297,cs),
(423,220,o),
(506,146,o),
(601,166,c),
(633,130,l),
(558,171,o),
(474,221,o),
(407,280,c),
(460,328,o),
(508,382,o),
(556,446,c),
(694,326,o),
(940,137,o),
(1352,124,cs),
(1524,119,o),
(1606,113,o),
(1798,117,c)
);
}
);
width = 1798;
}
);
metricLeft = "=0";
metricRight = "=0";
},
{
export = 0;
glyphname = "hah-ar.x";
layers = (
{
anchors = (
{
name = center;
pos = (1204,-107);
},
{
name = damma;
pos = (-133,42);
},
{
name = fatha;
pos = (1100,552);
},
{
name = kasra;
pos = (1621,-116);
},
{
name = top;
pos = (925,377);
}
);
backgroundImage = {
alpha = 80;
imagePath = "images/hah-ar.x.jpg";
locked = 1;
pos = (-567,-556);
scale = (20,20);
};
layerId = m01;
shapes = (
{
closed = 1;
nodes = (
(2184,91,o),
(2121,54,o),
(2090,26,cs),
(2066,5,o),
(2030,9,o),
(2002,7,cs),
(1826,-3,o),
(1426,6,o),
(1097,8,cs),
(821,11,o),
(599,10,o),
(548,12,cs),
(356,19,o),
(244,26,o),
(212,135,cs),
(207,152,o),
(181,145,o),
(186,127,cs),
(212,25,o),
(286,-3,o),
(437,-12,cs),
(638,-24,o),
(926,-16,o),
(1242,-15,c),
(1189,-43,o),
(1062,-96,o),
(925,-112,cs),
(738,-134,o),
(621,-142,o),
(409,-145,cs),
(161,-148,o),
(64,-128,o),
(16,-23,cs),
(-39,98,o),
(51,267,o),
(187,320,cs),
(243,342,o),
(311,330,o),
(349,294,cs),
(380,265,o),
(436,189,o),
(551,165,cs),
(737,127,o),
(1077,148,o),
(1136,160,c),
(1125,130,l),
(1050,171,o),
(960,238,o),
(893,297,c),
(946,345,o),
(994,399,o),
(1042,463,c),
(1256,277,o),
(1401,157,o),
(1812,124,cs),
(1984,110,o),
(2045,113,o),
(2237,117,c)
);
}
);
width = 2237;
}
);
metricLeft = "=0";
metricRight = "=0";
},
{
export = 0;
glyphname = "reh-ar.1";
layers = (
{
anchors = (
{
name = damma;
pos = (53,132);
},
{
name = fatha;
pos = (440,652);
},
{
name = kasra;
pos = (348,-161);
},
{
name = top;
pos = (324,382);
}
);
backgroundImage = {
alpha = 100;
imagePath = "1/image-0056.jpg";
locked = 1;
pos = (-10008,-7023);
scale = (20,20);
};
layerId = m01;
shapes = (
{
closed = 1;
nodes = (
(429,403,o),
(411,405,o),
(400,394,cs),
(362,356,o),
(276,232,o),
(220,162,cs),
(211,151,o),
(196,132,o),
(216,124,cs),
(278,96,o),
(348,98,o),
(422,100,c),
(426,96,o),
(428,90,o),
(428,86,c),
(348,74,o),
(254,80,o),
(168,112,c),
(128,64,o),
(60,-11,o),
(0,-28,c),
(28,-88,o),
(428,-78,o),
(538,-50,cs),
(628,-27,o),
(658,10,o),
(664,61,cs),
(673,141,o),
(508,337,o),
(439,394,cs)
);
}
);
width = 664;
}
);
metricLeft = "=0";
metricRight = "=0";
},
{
export = 0;
glyphname = "ain-ar.init.1";
layers = (
{
anchors = (
{
name = exit;
},
{
name = fatha;
pos = (174,627);
},
{
name = kasra;
pos = (515,-115);
},
{
name = top;
pos = (243,558);
}
);
layerId = m01;
shapes = (
{
closed = 1;
nodes = (
(302,-4,o),
(603,0,o),
(925,0,cs),
(949,0,o),
(972,7,o),
(985,15,cs),
(1035,48,o),
(1078,76,o),
(1129,95,c),
(1141,98,o),
(1139,106,o),
(1133,106,cs),
(930,98,o),
(642,109,o),
(452,160,cs),
(266,210,o),
(119,378,o),
(174,452,cs),
(209,499,o),
(251,543,o),
(289,582,cs),
(296,590,o),
(286,604,o),
(277,594,cs),
(194,507,o),
(113,421,o),
(42,336,cs),
(-18,265,o),
(54,124,o),
(152,104,c),
(184,150,l),
(-20,150,l),
(-20,0,l)
);
}
);
width = 1138;
}
);
metricLeft = "=-20";
metricRight = "=0";
},
{
export = 0;
glyphname = "fehDotless-ar.long";
layers = (
{
anchors = (
{
name = damma;
pos = (-100,68);
},
{
name = fatha;
pos = (3997,802);
},
{
name = kasra;
pos = (2966,-84);
},
{
name = top;
pos = (3838,587);
}
);
backgroundImage = {
alpha = 80;
angle = -0.6;
imagePath = "images/fehDotless-ar.jpg";
locked = 1;
pos = (-467,-404);
scale = (20,20);
};
layerId = m01;
shapes = (
{
closed = 1;
nodes = (
(4235,1,o),
(4340,7,o),
(4375,10,cs),
(4410,13,o),
(4443,36,o),
(4443,103,cs),
(4443,469,o),
(4240,722,o),
(4055,687,cs),
(3912,660,o),
(3820,543,o),
(3820,378,cs),
(3820,265,o),
(3877,200,o),
(3936,185,cs),
(4037,159,o),
(4134,177,o),
(4247,182,cs),
(4268,183,o),
(4274,160,o),
(4257,159,cs),
(3449,108,o),
(2649,151,o),
(1841,147,cs),
(1293,144,o),
(746,152,o),
(198,154,cs),
(192,154,o),
(185,159,o),
(180,166,cs),
(176,172,o),
(171,173,o),
(165,167,cs),
(118,114,o),
(50,28,o),
(7,16,cs),
(-3,13,o),
(-3,1,o),
(9,1,cs),
(809,8,o),
(1609,8,o),
(2409,11,cs),
(3029,13,o),
(3519,-6,o),
(4139,0,cs)
);
},
{
closed = 1;
nodes = (
(4102,406,o),
(4095,413,o),
(4095,421,cs),
(4095,429,o),
(4102,436,o),
(4110,436,cs),
(4118,436,o),
(4125,429,o),
(4125,421,cs),
(4125,413,o),
(4118,406,o),
(4110,406,cs)
);
}
);
width = 4443;
}
);
metricLeft = "=0";
metricRight = "=0";
},
{
export = 0;
glyphname = "meem-ar.init.1";
kernRight = meem;
layers = (
{
anchors = (
{
name = exit;
},
{
name = fatha;
pos = (289,574);
},
{
name = kasra;
pos = (350,-164);
}
);
layerId = m01;
shapes = (
{
closed = 1;
nodes = (
(294,0,l),
(500,0,o),
(528,8,o),
(528,126,cs),
(528,288,o),
(374,468,o),
(274,468,cs),
(150,468,o),
(0,322,o),
(0,112,c),
(0,0,l)
);
},
{
closed = 1;
nodes = (
(294,208,o),
(288,214,o),
(288,221,cs),
(288,228,o),
(294,234,o),
(301,234,cs),
(308,234,o),
(314,228,o),
(314,221,cs),
(314,214,o),
(308,208,o),
(301,208,cs)
);
}
);
width = 528;
}
);
metricLeft = "=0";
metricRight = "=0";
},
{
export = 0;
glyphname = "noonghunna-ar.1";
layers = (
{
anchors = (
{
name = damma;
pos = (186,-326);
},
{
name = fatha;
pos = (120,342);
},
{
name = kasra;
pos = (544,-413);
},
{
name = top;
pos = (64,250);
}
);
backgroundImage = {
alpha = 100;
imagePath = "1/image-0056.jpg";
locked = 1;
pos = (-11093,-3240);
scale = (20,20);
};
layerId = m01;
shapes = (
{
closed = 1;
nodes = (
(414,-882,o),
(426,-862,o),
(426,-838,cs),
(426,-592,o),
(421,-306,o),
(417,-60,cs),
(413,181,o),
(331,281,o),
(137,338,c),
(-1,157,l),
(105,143,o),
(225,86,o),
(268,-24,cs),
(324,-170,o),
(308,-474,o),
(292,-724,c),
(212,-731,o),
(145,-735,o),
(59,-717,c),
(21,-773,o),
(-29,-832,o),
(-80,-876,c),
(68,-908,o),
(247,-906,o),
(386,-886,cs)
);
}
);
width = 426;
}
);
metricLeft = "=0@158";
metricRight = "=0";
},
{
export = 0;
glyphname = "waw-ar.1";
layers = (
{
anchors = (
{
name = fatha;
pos = (390,669);
},
{
name = top.hamza;
pos = (129,407);
}
);
layerId = m01;
shapes = (
{
closed = 1;
nodes = (
(514,-64,o),
(636,-62,o),
(718,-22,cs),
(750,-6,o),
(788,20,o),
(784,126,cs),
(776,314,o),
(618,570,o),
(472,570,cs),
(300,570,o),
(194,366,o),
(216,226,cs),
(240,68,o),
(468,72,o),
(608,88,c),
(612,80,o),
(612,78,o),
(612,70,c),
(462,48,o),
(296,56,o),
(204,138,c),
(146,66,o),
(76,38,o),
(20,24,c),
(92,-32,o),
(276,-58,o),
(426,-62,cs)
);
},
{
closed = 1;
nodes = (
(468,312,o),
(462,318,o),
(462,325,cs),
(462,332,o),
(468,338,o),
(475,338,cs),
(482,338,o),
(488,332,o),
(488,325,cs),
(488,318,o),
(482,312,o),
(475,312,cs)
);
}
);
width = 804;
}
);
},
{
export = 0;
glyphname = "waw-ar.fina.1";
layers = (
{
anchors = (
{
name = top.hamza;
pos = (111,306);
}
);
layerId = m01;
shapes = (
{
closed = 1;
nodes = (
(738,-116,o),
(740,-96,o),
(748,-70,cs),
(788,56,o),
(678,472,o),
(456,472,cs),
(284,472,o),
(180,268,o),
(212,128,cs),
(244,-8,o),
(444,-6,o),
(584,8,c),
(588,0,o),
(588,-2,o),
(588,-10,c),
(438,-30,o),
(282,-28,o),
(190,54,c),
(142,-20,o),
(84,-52,o),
(20,-86,c),
(154,-180,o),
(622,-134,o),
(670,-126,cs)
);
},
{
closed = 1;
nodes = (
(460,218,o),
(454,224,o),
(454,231,cs),
(454,238,o),
(460,244,o),
(467,244,cs),
(474,244,o),
(480,238,o),
(480,231,cs),
(480,224,o),
(474,218,o),
(467,218,cs)
);
}
);
width = 740;
}
);
},
{
export = 0;
glyphname = "alefMaksura-ar.1";
layers = (
{
anchors = (
{
name = bottom;
pos = (388,-654);
}
);
backgroundImage = {
alpha = 80;
imagePath = "images/alefMaksura-ar.1.jpg";
locked = 1;
pos = (-614,-929);
scale = (20,20);
};
layerId = m01;
shapes = (
{
closed = 1;
nodes = (
(256,-689,o),
(305,-689,o),
(370,-684,cs),
(400,-682,o),
(418,-663,o),
(419,-630,cs),
(424,-513,o),
(451,-221,o),
(445,36,cs),
(444,60,o),
(442,85,o),
(416,82,cs),
(348,74,o),
(219,105,o),
(184,153,cs),
(181,157,o),
(185,171,o),
(196,163,cs),
(252,121,o),
(302,109,o),
(361,126,cs),
(413,142,o),
(459,208,o),
(472,281,c),
(457,276,o),
(442,274,o),
(419,274,cs),
(343,274,o),
(313,344,o),
(223,344,cs),
(88,344,o),
(20,199,o),
(20,127,cs),
(20,-60,o),
(180,-76,o),
(304,-90,cs),
(327,-93,o),
(332,-109,o),
(333,-152,cs),
(335,-253,o),
(327,-457,o),
(326,-524,c),
(277,-533,o),
(158,-532,o),
(87,-502,c),
(20,-570,o),
(-15,-623,o),
(-80,-651,c),
(-3,-666,o),
(105,-689,o),
(196,-689,cs)
);
}
);
width = 490;
}
);
metricLeft = "=20@127";
},
{
glyphname = "lam_alefMaksura-ar.fina";
layers = (
{
anchors = (
{
name = bottom_2;
pos = (594,-252);
},
{
name = caret_1;
},
{
name = damma_1;
pos = (-96,139);
},
{
name = damma_2;
pos = (-253,-226);
},
{
name = fatha_1;
pos = (-77,1135);
},
{
name = fatha_2;
pos = (94,115);
},
{
name = kasra_1;
pos = (94,115);
},
{
name = kasra_2;
pos = (36,-416);
}
);
layerId = m01;
shapes = (
{
closed = 1;
nodes = (
(476,-308,o),
(532,-276,o),
(528,-226,cs),
(522,-162,o),
(498,-106,o),
(468,-50,cs),
(460,-36,o),
(442,-26,o),
(426,-26,cs),
(342,-26,o),
(268,-26,o),
(162,-26,cs),
(122,-26,o),
(126,30,o),
(126,70,c),
(92,0,l),
(272,0,l),
(272,139,l),
(200,149,o),
(126,165,o),
(126,292,cs),
(126,522,o),
(164,1068,o),
(106,1242,c),
(74,1156,o),
(32,1078,o),
(-18,1038,c),
(14,940,o),
(20,698,o),
(16,576,cs),
(10,402,o),
(-8,74,o),
(4,-118,cs),
(6,-144,o),
(10,-154,o),
(36,-158,cs),
(146,-172,o),
(248,-168,o),
(330,-164,c),
(336,-178,o),
(340,-180,o),
(340,-194,c),
(278,-194,o),
(82,-212,o),
(-8,-174,c),
(-36,-216,o),
(-96,-258,o),
(-186,-302,c),
(-62,-340,o),
(342,-330,o),
(430,-316,cs)
);
}
);
width = 140;
}
);
metricLeft = "=0@0";
},
{
glyphname = "behDotless_reh-ar";
layers = (
{
anchors = (
{
name = bottom_1;
pos = (666,34);
},
{
name = caret_1;
pos = (524,0);
},
{
name = fatha_1;
pos = (626,702);
},
{
name = fatha_2;
pos = (406,376);
},
{
name = top_1;
pos = (594,474);
},
{
name = top_2;
pos = (304,200);
}
);
layerId = m01;
shapes = (
{
closed = 1;
nodes = (
(576,-144,o),
(616,-120,o),
(622,-84,cs),
(644,52,o),
(528,214,o),
(434,276,cs),
(414,288,o),
(404,284,o),
(394,276,cs),
(362,250,o),
(252,128,o),
(202,56,cs),
(194,46,o),
(182,28,o),
(200,22,cs),
(256,2,o),
(344,-2,o),
(410,0,c),
(414,-4,o),
(416,-14,o),
(416,-18,c),
(344,-30,o),
(238,-24,o),
(160,4,c),
(124,-38,o),
(54,-102,o),
(0,-126,c),
(54,-170,o),
(396,-192,o),
(540,-154,cs)
);
},
{
closed = 1;
nodes = (
(662,0,l),
(684,0,o),
(702,14,o),
(702,36,cs),
(705,286,o),
(699,392,o),
(667,571,c),
(627,505,o),
(585,447,o),
(538,396,c),
(555,304,o),
(561,208,o),
(556,84,c),
(616,132,l),
(532,132,l),
(532,0,l)
);
}
);
width = 703;
}
);
metricLeft = "=0";
metricRight = "=0";
},
{
glyphname = "behDotless_seen-ar.init";
layers = (
{
anchors = (
{
name = bottom_1;
pos = (591,-5);
},
{
name = caret_1;
pos = (476,0);
},
{
name = damma_2;
pos = (-1,245);
},
{
name = exit;
},
{
name = fatha_1;
pos = (621,800);
},
{
name = kasra_1;
pos = (739,-166);
},
{
name = top_1;
pos = (541,611);
}
);
backgroundImage = {
alpha = 100;
imagePath = "1/image-0056.jpg";
locked = 1;
pos = (-11673,-7050);
scale = (20,20);
};
guides = (
{
pos = (801,132);
}
);
layerId = m01;
shapes = (
{
closed = 1;
nodes = (
(521,0,l),
(524,151,l),
(477,231,o),
(466,390,o),
(461,508,c),
(423,439,o),
(380,375,o),
(338,330,c),
(345,275,o),
(358,220,o),
(378,165,c),
(334,243,o),
(307,365,o),
(283,487,c),
(259,407,o),
(225,330,o),
(191,272,c),
(201,241,o),
(213,211,o),
(231,180,c),
(177,242,o),
(141,326,o),
(111,411,c),
(85,340,o),
(55,263,o),
(20,211,c),
(38,177,o),
(55,147,o),
(70,130,c),
(92,70,l),
(116,132,l),
(-20,132,l),
(-20,0,l)
);
},
{
closed = 1;
nodes = (
(601,0,l),
(623,0,o),
(639,14,o),
(639,36,cs),
(639,344,o),
(643,427,o),
(603,710,c),
(564,642,o),
(524,573,o),
(479,520,c),
(508,385,o),
(500,263,o),
(495,84,c),
(555,132,l),
(437,132,l),
(465,0,l)
);
}
);
width = 639;
}
);
metricLeft = "=20@211";
metricRight = "=0";
},
{
glyphname = "behDotless_waw-ar";
layers = (
{
anchors = (
{
name = bottom_1;
pos = (830,98);
},
{
name = caret_1;
pos = (644,0);
},
{
name = fatha_1;
pos = (802,760);
},
{
name = fatha_2;
pos = (414,700);
},
{
name = top_1;
pos = (726,550);
}
);
layerId = m01;
shapes = (
{
closed = 1;
nodes = (
(830,60,l),
(852,60,o),
(868,74,o),
(868,96,cs),
(868,364,o),
(836,461,o),
(788,622,c),
(747,558,o),
(705,499,o),
(657,449,c),
(704,354,o),
(716,313,o),
(716,144,c),
(784,192,l),
(700,192,l),
(700,60,l)
);
},
{
pos = (-10,100);
ref = "waw-ar.fina.alt";
}
);
width = 868;
}
);
metricLeft = "=0";
metricRight = "=0";
},
{
glyphname = "ain_waw-ar";
layers = (
{
anchors = (
{
name = caret_1;
pos = (743,0);
},
{
name = fatha_1;
pos = (874,618);
},
{
name = fatha_2;
pos = (448,640);
}
);
backgroundImage = {
imagePath = "images/ain_waw-ar.jpg";
locked = 1;
pos = (-142,-456);
scale = (20,20);
};
layerId = m01;
shapes = (
{
closed = 1;
nodes = (
(1079,-4,o),
(1591,-4,o),
(1918,0,c),
(1981,49,o),
(2055,82,o),
(2134,106,c),
(1918,98,o),
(1378,109,o),
(1184,170,cs),
(998,228,o),
(843,371,o),
(902,442,cs),
(1010,571,l),
(996,584,l),
(782,346,ls),
(717,274,o),
(764,127,o),
(862,107,c),
(914,142,l),
(734,142,l),
(734,-1,l)
);
},
{
closed = 1;
nodes = (
(782,-94,o),
(833,0,o),
(797,79,cs),
(757,167,o),
(738,212,o),
(684,300,cs),
(644,364,o),
(575,476,o),
(457,476,cs),
(307,476,o),
(178,274,o),
(210,134,cs),
(242,-2,o),
(428,-30,o),
(617,-12,c),
(621,-20,o),
(621,-25,o),
(621,-33,c),
(471,-53,o),
(262,-29,o),
(196,57,c),
(148,0,o),
(64,-46,o),
(0,-60,c),
(207,-189,o),
(539,-165,o),
(638,-136,cs)
);
},
{
closed = 1;
nodes = (
(435,239,o),
(429,245,o),
(429,252,cs),
(429,259,o),
(435,265,o),
(442,265,cs),
(449,265,o),
(455,259,o),
(455,252,cs),
(455,245,o),
(449,239,o),
(442,239,cs)
);
}
);
width = 2134;
}
);
metricLeft = "=0";
metricRight = "=0";
},
{
glyphname = "fehDotless_alefMaksura-ar";
layers = (
{
anchors = (
{
name = bottom_1;
pos = (938,290);
},
{
name = bottom_2;
pos = (524,-110);
},
{
name = caret_1;
pos = (380,0);
},
{
name = top_1;
pos = (432,692);
},
{
name = top_2;
pos = (112,382);
}
);
layerId = m01;
shapes = (
{
closed = 1;
nodes = (
(400,-4,o),
(1492,-14,o),
(1848,34,cs),
(1856,36,o),
(1862,42,o),
(1870,50,cs),
(1902,82,o),
(1944,112,o),
(2010,136,c),
(1698,110,o),
(810,98,o),
(392,122,cs),
(302,128,o),
(230,156,o),
(200,184,cs),
(194,190,o),
(194,204,o),
(204,200,cs),
(212,196,o),
(218,188,o),
(226,184,cs),
(266,160,o),
(322,142,o),
(380,140,cs),
(522,134,o),
(702,146,o),
(786,156,cs),
(826,160,o),
(888,180,o),
(896,226,cs),
(942,492,o),
(794,786,o),
(606,786,cs),
(412,786,o),
(266,406,o),
(446,318,cs),
(526,280,o),
(662,294,o),
(738,306,c),
(748,292,l),
(692,278,o),
(518,268,o),
(438,294,cs),
(360,318,o),
(348,424,o),
(242,424,cs),
(112,424,o),
(0,270,o),
(0,134,cs),
(0,22,o),
(122,20,o),
(186,14,cs)
);
},
{
closed = 1;
nodes = (
(611,532,o),
(604,539,o),
(604,547,cs),
(604,555,o),
(611,562,o),
(619,562,cs),
(627,562,o),
(634,555,o),
(634,547,cs),
(634,539,o),
(627,532,o),
(619,532,cs)
);
}
);
width = 2010;
}
);
metricLeft = "=0";
metricRight = "=0";
},
{
glyphname = "lam_lam_heh-ar";
layers = (
{
anchors = (
{
name = caret_1;
pos = (483,0);
},
{
name = caret_2;
pos = (629,0);
},
{
name = damma_3;
pos = (-90,140);
},
{
name = fatha_2;
pos = (373,1013);
},
{
name = kasra_1;
pos = (751,-72);
},
{
name = kasra_3;
pos = (376,-76);
}
);
backgroundImage = {
alpha = 80;
imagePath = "images/allah-ar.jpg";
locked = 1;
pos = (-202,-213);
scale = (20,20);
};
layerId = m01;
shapes = (
{
closed = 1;
nodes = (
(547,-5,o),
(638,-4,o),
(729,7,cs),
(794,15,o),
(799,23,o),
(800,56,cs),
(804,198,o),
(778,472,o),
(776,652,cs),
(774,871,o),
(770,1079,o),
(743,1298,cs),
(741,1313,o),
(732,1310,o),
(726,1297,cs),
(708,1257,o),
(661,1173,o),
(618,1128,cs),
(610,1120,o),
(610,1107,o),
(614,1095,cs),
(622,1074,o),
(638,964,o),
(644,822,cs),
(652,609,o),
(645,325,o),
(644,179,c),
(616,192,o),
(615,222,o),
(615,300,cs),
(615,461,o),
(621,733,o),
(612,937,cs),
(608,1009,o),
(598,1072,o),
(590,1119,cs),
(586,1140,o),
(572,1141,o),
(562,1121,cs),
(535,1066,o),
(507,1013,o),
(470,974,cs),
(463,966,o),
(461,955,o),
(464,940,cs),
(478,882,o),
(487,812,o),
(490,741,cs),
(497,555,o),
(498,369,o),
(494,183,c),
(473,193,o),
(475,213,o),
(475,248,cs),
(476,411,o),
(461,575,o),
(457,738,cs),
(457,753,o),
(443,757,o),
(439,738,cs),
(429,689,o),
(353,595,o),
(321,561,cs),
(315,555,o),
(311,552,o),
(314,542,cs),
(321,520,o),
(320,496,o),
(317,474,c),
(345,527,l),
(175,512,o),
(0,384,o),
(0,210,cs),
(0,5,o),
(228,-6,o),
(456,-5,cs)
);
},
{
closed = 1;
nodes = (
(272,273,o),
(265,280,o),
(265,288,cs),
(265,296,o),
(272,303,o),
(280,303,cs),
(288,303,o),
(295,296,o),
(295,288,cs),
(295,280,o),
(288,273,o),
(280,273,cs)
);
}
);
width = 800;
}
);
metricLeft = "=0";
metricRight = "=0";
},
{
glyphname = "meem_noonghunna-ar";
layers = (
{
anchors = (
{
name = caret_1;
pos = (395,0);
},
{
name = damma;
pos = (185,-326);
},
{
name = fatha_2;
pos = (122,452);
},
{
name = kasra;
pos = (527,-413);
},
{
name = kasra_1;
pos = (650,-127);
},
{
name = top_2;
pos = (47,266);
}
);
backgroundImage = {
alpha = 100;
imagePath = "1/image-0056.jpg";
locked = 1;
pos = (-7742,-7014);
scale = (20,20);
};
layerId = m01;
shapes = (
{
closed = 1;
nodes = (
(426,-882,o),
(439,-862,o),
(438,-838,cs),
(424,-592,o),
(417,-245,o),
(427,-50,cs),
(439,191,o),
(381,298,o),
(120,373,c),
(92,312,o),
(54,249,o),
(0,188,c),
(108,177,o),
(246,124,o),
(280,6,cs),
(322,-140,o),
(311,-478,o),
(309,-728,c),
(235,-735,o),
(153,-724,o),
(80,-704,c),
(39,-763,o),
(-18,-822,o),
(-75,-866,c),
(74,-901,o),
(257,-906,o),
(398,-886,cs)
);
},
{
closed = 1;
nodes = (
(904,21,o),
(949,66,o),
(935,183,cs),
(915,345,o),
(820,541,o),
(678,541,cs),
(528,541,o),
(404,379,o),
(398,195,cs),
(394,87,o),
(500,21,o),
(702,21,cs)
);
},
{
closed = 1;
nodes = (
(694,239,o),
(688,245,o),
(688,252,cs),
(688,259,o),
(694,265,o),
(701,265,cs),
(708,265,o),
(714,259,o),
(714,252,cs),
(714,245,o),
(708,239,o),
(701,239,cs)
);
}
);
width = 937;
}
);
metricLeft = "=0@188";
metricRight = "=0";
},
{
glyphname = "meem_noonghunna-ar.1";
layers = (
{
anchors = (
{
name = caret_1;
pos = (354,-20);
},
{
name = damma;
pos = (186,-326);
},
{
name = fatha_2;
pos = (141,432);
},
{
name = kasra;
pos = (498,-413);
},
{
name = kasra_1;
pos = (665,-92);
},
{
name = top_2;
pos = (51,226);
}
);
backgroundImage = {
alpha = 100;
imagePath = "1/image-0056.jpg";
pos = (-14843,-3234);
scale = (20,20);
};
layerId = m01;
shapes = (
{
closed = 1;
nodes = (
(391,-887,o),
(404,-867,o),
(403,-843,cs),
(393,-597,o),
(386,-275,o),
(392,-80,cs),
(399,144,o),
(380,238,o),
(142,329,c),
(107,269,o),
(56,207,o),
(-2,148,c),
(100,130,o),
(218,80,o),
(248,-24,cs),
(290,-170,o),
(270,-473,o),
(268,-723,c),
(197,-730,o),
(118,-720,o),
(47,-702,c),
(7,-758,o),
(-53,-813,o),
(-108,-855,c),
(41,-893,o),
(224,-911,o),
(363,-891,cs)
);
},
{
closed = 1;
nodes = (
(863,2,o),
(888,36,o),
(874,153,cs),
(854,315,o),
(785,501,o),
(643,501,cs),
(513,501,o),
(385,348,o),
(357,165,cs),
(348,107,o),
(459,-20,o),
(661,-9,cs)
);
},
{
closed = 1;
nodes = (
(653,209,o),
(647,215,o),
(647,222,cs),
(647,229,o),
(653,235,o),
(660,235,cs),
(667,235,o),
(673,229,o),
(673,222,cs),
(673,215,o),
(667,209,o),
(660,209,cs)
);
}
);
width = 877;
}
);
metricLeft = "=0@150";
metricRight = "=0";
},
{
glyphname = "fehDotless_alef-ar";
layers = (
{
anchors = (
{
name = caret_1;
pos = (188,0);
},
{
name = damma_1;
pos = (137,340);
},
{
name = damma_2;
pos = (-88,58);
},
{
name = fatha_1;
pos = (408,746);
},
{
name = fatha_2;
pos = (278,1124);
},
{
name = kasra_1;
pos = (524,-99);
},
{
name = kasra_2;
pos = (74,-96);
},
{
name = top.hamza_2;
pos = (278,1124);
},
{
name = top.madda_2;
pos = (-96,1076);
},
{
name = top_1;
pos = (258,596);
}
);
layerId = m01;
shapes = (
{
closed = 1;
nodes = (
(336,-16,o),
(526,-4,o),
(610,8,cs),
(688,18,o),
(712,52,o),
(712,106,cs),
(710,268,o),
(614,640,o),
(396,640,cs),
(244,640,o),
(130,464,o),
(152,314,cs),
(180,120,o),
(444,154,o),
(528,148,c),
(532,144,o),
(534,140,o),
(534,132,c),
(320,132,o),
(120,132,o),
(120,362,cs),
(120,675,o),
(188,984,o),
(165,1295,c),
(125,1229,o),
(76,1164,o),
(23,1105,c),
(30,1052,o),
(36,998,o),
(36,944,cs),
(36,668,o),
(4,454,o),
(0,178,cs),
(-2,24,o),
(72,-16,o),
(174,-16,cs)
);
},
{
closed = 1;
nodes = (
(389,396,o),
(382,403,o),
(382,411,cs),
(382,419,o),
(389,426,o),
(397,426,cs),
(405,426,o),
(412,419,o),
(412,411,cs),
(412,403,o),
(405,396,o),
(397,396,cs)
);
}
);
width = 712;
}
);
metricLeft = "=0";
metricRight = "=0";
},
{
glyphname = "lam_alef-ar";
layers = (
{
anchors = (
{
name = bottom.hamza_2;
pos = (102,-117);
},
{
name = caret_1;
pos = (337,0);
},
{
name = fatha_1;
pos = (-128,1054);
},
{
name = fatha_2;
pos = (592,956);
},
{
name = kasra_1;
pos = (648,-111);
},
{
name = kasra_2;
pos = (102,-117);
},
{
name = top.hamza_2;
pos = (597,1076);
}
);
backgroundImage = {
alpha = 80;
imagePath = "images/lam_alef-ar.jpg";
locked = 1;
pos = (-292,-197);
scale = (20,20);
};
layerId = m01;
shapes = (
{
closed = 1;
nodes = (
(263,-32,o),
(628,-21,o),
(714,7,cs),
(768,25,o),
(751,43,o),
(715,102,cs),
(656,198,o),
(413,436,o),
(391,505,c),
(358,557,o),
(61,1037,o),
(32,1104,cs),
(27,1115,o),
(16,1119,o),
(10,1102,cs),
(-14,1034,o),
(-44,979,o),
(-84,939,cs),
(-93,930,o),
(-78,926,o),
(-74,920,cs),
(32,765,o),
(202,426,o),
(348,240,c),
(457,464,o),
(511,882,o),
(524,1147,cs),
(525,1161,o),
(513,1164,o),
(506,1150,cs),
(481,1099,o),
(443,1051,o),
(406,1023,cs),
(392,1013,o),
(388,1006,o),
(388,998,cs),
(388,781,o),
(342,604,o),
(310,487,c),
(269,324,o),
(143,163,o),
(9,19,cs),
(-6,3,o),
(-2,0,o),
(15,-2,cs)
);
},
{
closed = 1;
nodes = (
(360,173,o),
(353,180,o),
(353,188,cs),
(353,196,o),
(360,203,o),
(368,203,cs),
(376,203,o),
(383,196,o),
(383,188,cs),
(383,180,o),
(376,173,o),
(368,173,cs)
);
}
);
width = 749;
}
);
metricLeft = "=0@5";
metricRight = "=0";
},
{
glyphname = "lam_alef-ar.fina";
layers = (
{
anchors = (
{
name = bottom.hamza_2;
pos = (102,-90);
},
{
name = caret_1;
pos = (329,0);
},
{
name = fatha_1;
pos = (-138,1124);
},
{
name = fatha_2;
pos = (571,1016);
},
{
name = kasra_1;
pos = (558,-91);
},
{
name = kasra_2;
pos = (102,-90);
},
{
name = top.hamza_2;
pos = (572,1171);
}
);
backgroundImage = {
alpha = 80;
angle = 0.6;
imagePath = "images/lam_alef-ar.fina.jpg";
locked = 1;
pos = (-227,-164);
scale = (20,20);
};
layerId = m01;
shapes = (
{
closed = 1;
nodes = (
(676,150,l),
(657,150,o),
(629,146,o),
(605,181,cs),
(535,284,o),
(439,415,o),
(376,542,c),
(268,753,o),
(156,996,o),
(46,1200,cs),
(40,1210,o),
(34,1207,o),
(29,1197,cs),
(3,1144,o),
(-30,1082,o),
(-60,1037,cs),
(-64,1031,o),
(-66,1024,o),
(-62,1019,cs),
(51,839,o),
(193,486,o),
(340,241,c),
(449,420,o),
(474,838,o),
(504,1252,cs),
(505,1274,o),
(496,1286,o),
(490,1257,cs),
(479,1205,o),
(415,1151,o),
(376,1111,cs),
(368,1103,o),
(368,1095,o),
(367,1087,cs),
(348,888,o),
(350,688,o),
(309,489,c),
(228,358,o),
(87,123,o),
(38,59,cs),
(31,50,o),
(25,37,o),
(16,33,cs),
(-9,22,o),
(-4,10,o),
(23,8,cs),
(214,-7,o),
(454,-1,o),
(677,0,c)
);
},
{
closed = 1;
nodes = (
(329,194,o),
(322,201,o),
(322,209,cs),
(322,217,o),
(329,224,o),
(337,224,cs),
(345,224,o),
(352,217,o),
(352,209,cs),
(352,201,o),
(345,194,o),
(337,194,cs)
);
}
);
width = 637;
}
);
metricLeft = "=0@17";
metricRight = "=-40";
},
{
glyphname = .notdef;
layers = (
{
layerId = m01;
shapes = (
{
closed = 1;
nodes = (
(1000,-800,l),
(1000,1200,l),
(200,1200,l),
(200,-800,l)
);
},
{
closed = 1;
nodes = (
(948,1084,l),
(852,1116,l),
(252,-684,l),
(348,-716,l)
);
},
{
closed = 1;
nodes = (
(348,1116,l),
(252,1084,l),
(852,-716,l),
(948,-684,l)
);
},
{
closed = 1;
nodes = (
(300,1100,l),
(900,1100,l),
(900,-700,l),
(300,-700,l)
);
}
);
width = 1200;
}
);
},
{
glyphname = "endofayah-ar";
layers = (
{
guides = (
{
angle = 90;
pos = (370,208);
},
{
angle = 180;
pos = (350,104);
},
{
angle = 202.5;
pos = (370,208);
},
{
angle = 247.5;
pos = (370,208);
},
{
angle = 225;
pos = (370,208);
}
);
layerId = m01;
shapes = (
{
closed = 1;
nodes = (
(498,-22,o),
(600,82,o),
(600,208,cs),
(600,334,o),
(498,438,o),
(370,438,cs),
(244,438,o),
(140,334,o),
(140,208,cs),
(140,82,o),
(244,-22,o),
(370,-22,cs)
);
},
{
closed = 1;
nodes = (
(297,0,o),
(320,67,o),
(348,131,c),
(342,133,o),
(336,135,o),
(331,138,c),
(307,74,o),
(273,10,o),
(222,60,cs),
(173,111,o),
(235,145,o),
(300,168,c),
(297,173,o),
(294,179,o),
(292,186,c),
(229,158,o),
(162,136,o),
(162,208,cs),
(162,281,o),
(229,258,o),
(293,230,c),
(295,236,o),
(297,242,o),
(300,248,c),
(235,272,o),
(173,305,o),
(222,356,cs),
(274,406,o),
(307,342,o),
(331,277,c),
(336,280,o),
(342,283,o),
(348,285,c),
(320,349,o),
(298,416,o),
(370,416,cs),
(442,416,o),
(420,349,o),
(392,285,c),
(398,283,o),
(404,281,o),
(409,278,c),
(433,342,o),
(467,406,o),
(518,356,cs),
(567,305,o),
(505,271,o),
(440,248,c),
(443,242,o),
(446,236,o),
(447,230,c),
(511,258,o),
(578,280,o),
(578,208,cs),
(578,136,o),
(511,158,o),
(447,186,c),
(445,180,o),
(443,174,o),
(440,168,c),
(505,145,o),
(567,111,o),
(518,60,cs),
(467,11,o),
(433,73,o),
(410,138,c),
(404,135,o),
(398,132,o),
(392,131,c),
(420,67,o),
(442,0,o),
(370,0,cs)
);
},
{
closed = 1;
nodes = (
(400,156,o),
(422,180,o),
(422,208,cs),
(422,236,o),
(400,260,o),
(370,260,cs),
(342,260,o),
(318,236,o),
(318,208,cs),
(318,180,o),
(342,156,o),
(370,156,cs)
);
}
);
width = 740;
},
{
associatedMasterId = m01;
attr = {
colorPalette = 1;
};
layerId = "38461C08-F54E-4BE4-9620-3C6CF5840E38";
shapes = (
{
closed = 1;
nodes = (
(498,-22,o),
(600,82,o),
(600,208,cs),
(600,334,o),
(498,438,o),
(370,438,cs),
(244,438,o),
(140,334,o),
(140,208,cs),
(140,82,o),
(244,-22,o),
(370,-22,cs)
);
}
);
width = 740;
},
{
associatedMasterId = m01;
attr = {
colorPalette = 2;
};
layerId = "A1159DA2-F385-4606-A8B3-A130608730DA";
shapes = (
{
closed = 1;
nodes = (
(498,-22,o),
(600,82,o),
(600,208,cs),
(600,334,o),
(498,438,o),
(370,438,cs),
(244,438,o),
(140,334,o),
(140,208,cs),
(140,82,o),
(244,-22,o),
(370,-22,cs)
);
},
{
closed = 1;
nodes = (
(297,0,o),
(320,67,o),
(348,131,c),
(342,133,o),
(336,135,o),
(331,138,c),
(307,74,o),
(273,10,o),
(222,60,cs),
(173,111,o),
(235,145,o),
(300,168,c),
(297,173,o),
(294,179,o),
(292,186,c),
(229,158,o),
(162,136,o),
(162,208,cs),
(162,281,o),
(229,258,o),
(293,230,c),
(295,236,o),
(297,242,o),
(300,248,c),
(235,272,o),
(173,305,o),
(222,356,cs),
(274,406,o),
(307,342,o),
(331,277,c),
(336,280,o),
(342,283,o),
(348,285,c),
(320,349,o),
(298,416,o),
(370,416,cs),
(442,416,o),
(420,349,o),
(392,285,c),
(398,283,o),
(404,281,o),
(409,278,c),
(433,342,o),
(467,406,o),
(518,356,cs),
(567,305,o),
(505,271,o),
(440,248,c),
(443,242,o),
(446,236,o),
(447,230,c),
(511,258,o),
(578,280,o),
(578,208,cs),
(578,136,o),
(511,158,o),
(447,186,c),
(445,180,o),
(443,174,o),
(440,168,c),
(505,145,o),
(567,111,o),
(518,60,cs),
(467,11,o),
(433,73,o),
(410,138,c),
(404,135,o),
(398,132,o),
(392,131,c),
(420,67,o),
(442,0,o),
(370,0,cs)
);
},
{
closed = 1;
nodes = (
(400,156,o),
(422,180,o),
(422,208,cs),
(422,236,o),
(400,260,o),
(370,260,cs),
(342,260,o),
(318,236,o),
(318,208,cs),
(318,180,o),
(342,156,o),
(370,156,cs)
);
}
);
width = 740;
},
{
associatedMasterId = m01;
attr = {
colorPalette = 0;
};
guides = (
{
angle = 90;
pos = (370,208);
},
{
angle = 180;
pos = (370,208);
},
{
angle = 202.5;
pos = (370,208);
},
{
angle = 247.5;
pos = (370,208);
},
{
angle = 225;
pos = (370,208);
}
);
layerId = "F1582E70-E757-409A-AE56-0C2D8B4714EF";
shapes = (
{
closed = 1;
nodes = (
(306,380,o),
(322,396,o),
(322,418,cs),
(322,438,o),
(306,454,o),
(286,454,cs),
(264,454,o),
(248,438,o),
(248,418,cs),
(248,396,o),
(264,380,o),
(286,380,cs)
);
},
{
closed = 1;
nodes = (
(476,380,o),
(492,396,o),
(492,418,cs),
(492,438,o),
(476,454,o),
(456,454,cs),
(434,454,o),
(418,438,o),
(418,418,cs),
(418,396,o),
(434,380,o),
(456,380,cs)
);
},
{
closed = 1;
nodes = (
(306,-38,o),
(322,-22,o),
(322,0,cs),
(322,20,o),
(306,36,o),
(286,36,cs),
(264,36,o),
(248,20,o),
(248,0,cs),
(248,-22,o),
(264,-38,o),
(286,-38,cs)
);
},
{
closed = 1;
nodes = (
(476,-38,o),
(492,-22,o),
(492,0,cs),
(492,20,o),
(476,36,o),
(456,36,cs),
(434,36,o),
(418,20,o),
(418,0,cs),
(418,-22,o),
(434,-38,o),
(456,-38,cs)
);
},
{
closed = 1;
nodes = (
(182,256,o),
(198,272,o),
(198,294,cs),
(198,314,o),
(182,330,o),
(162,330,cs),
(140,330,o),
(124,314,o),
(124,294,cs),
(124,272,o),
(140,256,o),
(162,256,cs)
);
},
{
closed = 1;
nodes = (
(182,86,o),
(198,102,o),
(198,124,cs),
(198,144,o),
(182,160,o),
(162,160,cs),
(140,160,o),
(124,144,o),
(124,124,cs),
(124,102,o),
(140,86,o),
(162,86,cs)
);
},
{
closed = 1;
nodes = (
(600,256,o),
(616,272,o),
(616,294,cs),
(616,314,o),
(600,330,o),
(580,330,cs),
(558,330,o),
(542,314,o),
(542,294,cs),
(542,272,o),
(558,256,o),
(580,256,cs)
);
},
{
closed = 1;
nodes = (
(600,86,o),
(616,102,o),
(616,124,cs),
(616,144,o),
(600,160,o),
(580,160,cs),
(558,160,o),
(542,144,o),
(542,124,cs),
(542,102,o),
(558,86,o),
(580,86,cs)
);
}
);
width = 740;
}
);
unicode = 1757;
},
{
glyphname = "dotabove-ar";
layers = (
{
anchors = (
{
name = _top;
pos = (90,50);
}
);
layerId = m01;
shapes = (
{
closed = 1;
nodes = (
(61,50,o),
(94,95,o),
(129,153,c),
(111,163,l),
(78,107,o),
(45,62,o),
(1,12,c),
(17,-2,l)
);
}
);
width = 128;
},
{
anchors = (
{
name = _top;
pos = (90,50);
}
);
associatedMasterId = m01;
layerId = "1951D83C-027C-46A2-BBE7-A485E6845D98";
name = "1 May 21, 00:30";
shapes = (
{
closed = 1;
nodes = (
(128,152,l),
(112,164,l),
(0,12,l),
(16,0,l)
);
}
);
width = 128;
}
);
},
{
glyphname = "dotabove-ar.reh";
layers = (
{
anchors = (
{
name = _top;
pos = (90,50);
}
);
layerId = m01;
shapes = (
{
closed = 1;
nodes = (
(62,42,o),
(104,91,o),
(142,142,c),
(126,154,l),
(88,103,o),
(48,56,o),
(2,13,c),
(16,-1,l)
);
}
);
width = 142;
},
{
anchors = (
{
name = _top;
pos = (90,50);
}
);
associatedMasterId = m01;
layerId = "54B3BE47-6985-45AE-A51D-CDE60F3B1871";
name = "1 May 21, 00:31";
shapes = (
{
closed = 1;
nodes = (
(142,142,l),
(126,154,l),
(0,12,l),
(16,0,l)
);
},
{
closed = 0;
nodes = (
(134,148,l),
(96,97,o),
(55,49,o),
(9,6,c)
);
}
);
width = 142;
}
);
},
{
glyphname = "threedotshorizontalabove-ar";
layers = (
{
anchors = (
{
name = _top;
pos = (397,-14);
}
);
layerId = m01;
shapes = (
{
closed = 1;
nodes = (
(553,78,o),
(587,132,o),
(615,192,c),
(597,200,l),
(569,142,o),
(537,90,o),
(501,41,c),
(517,29,l)
);
},
{
closed = 1;
nodes = (
(372,10,o),
(407,65,o),
(430,124,c),
(412,132,l),
(389,75,o),
(356,22,o),
(316,-30,c),
(332,-42,l)
);
},
{
closed = 1;
nodes = (
(56,-146,o),
(85,-93,o),
(113,-40,c),
(96,-30,l),
(68,-83,o),
(39,-135,o),
(0,-183,c),
(15,-197,l)
);
}
);
width = 615;
}
);
metricLeft = "=0";
metricRight = "=0";
},
{
glyphname = "threedotshorizontalabove-ar.alt";
layers = (
{
anchors = (
{
name = _top;
pos = (210,-14);
}
);
layerId = m01;
shapes = (
{
closed = 1;
nodes = (
(372,135,o),
(406,189,o),
(434,249,c),
(416,257,l),
(388,199,o),
(356,147,o),
(320,98,c),
(336,86,l)
);
},
{
closed = 1;
nodes = (
(218,82,o),
(253,137,o),
(276,196,c),
(258,204,l),
(235,147,o),
(202,94,o),
(162,42,c),
(178,30,l)
);
},
{
closed = 1;
nodes = (
(52,54,o),
(76,110,o),
(98,166,c),
(80,174,l),
(58,118,o),
(34,64,o),
(0,12,c),
(16,0,l)
);
}
);
width = 434;
}
);
},
{
glyphname = "fatha-ar";
layers = (
{
anchors = (
{
name = _fatha;
pos = (92,92);
}
);
layerId = m01;
shapes = (
{
closed = 1;
nodes = (
(142,0,o),
(184,42,o),
(184,92,cs),
(184,142,o),
(142,184,o),
(92,184,cs),
(42,184,o),
(0,142,o),
(0,92,cs),
(0,42,o),
(42,0,o),
(92,0,cs)
);
},
{
closed = 1;
nodes = (
(50,20,o),
(20,50,o),
(20,92,cs),
(20,134,o),
(50,164,o),
(92,164,cs),
(134,164,o),
(164,134,o),
(164,92,cs),
(164,50,o),
(134,20,o),
(92,20,cs)
);
}
);
width = 184;
},
{
anchors = (
{
name = _fatha;
pos = (92,92);
}
);
associatedMasterId = m01;
attr = {
colorPalette = 0;
};
layerId = "7AFB0887-D8D9-481C-81E1-5E6720F61C9F";
name = "Regular 25 Jun 22, 20:51";
shapes = (
{
closed = 1;
nodes = (
(142,0,o),
(184,42,o),
(184,92,cs),
(184,142,o),
(142,184,o),
(92,184,cs),
(42,184,o),
(0,142,o),
(0,92,cs),
(0,42,o),
(42,0,o),
(92,0,cs)
);
}
);
width = 184;
}
);
unicode = 1614;
},
